<svg width="133" height="35" viewBox="0 0 133 35" fill="none" xmlns="http://www.w3.org/2000/svg">
<path d="M30.5856 12.25C30.9456 12.25 31.0656 12.38 31.0656 12.73V20.65H35.1356C35.4856 20.65 35.6156 20.78 35.6156 21.13V21.83C35.6156 22.18 35.4856 22.31 35.1356 22.31H29.7756C29.4256 22.31 29.2856 22.18 29.2856 21.83V12.73C29.2856 12.38 29.4256 12.25 29.7756 12.25H30.5856Z" fill="#fff"/>
<path d="M39.1655 15.74C39.1655 13.43 40.6255 12.04 43.1655 12.04C45.7055 12.04 47.1655 13.43 47.1655 15.74V18.82C47.1655 21.13 45.6955 22.52 43.1655 22.52C40.6355 22.52 39.1655 21.13 39.1655 18.82V15.74ZM45.4855 15.74C45.4855 14.44 44.6755 13.74 43.2155 13.74C41.7555 13.74 40.9555 14.45 40.9555 15.74V18.84C40.9555 20.15 41.7555 20.84 43.2155 20.84C44.6755 20.84 45.4855 20.12 45.4855 18.84V15.74Z" fill="#fff"/>
<path d="M59.0756 16.8C59.4656 16.8 59.5556 16.93 59.5556 17.28V19.18C59.5662 19.6275 59.4765 20.0718 59.2931 20.4801C59.1096 20.8885 58.8372 21.2506 58.4956 21.54C57.6473 22.2155 56.5777 22.5506 55.4956 22.48C52.9056 22.48 51.4956 21.09 51.4956 18.78V15.68C51.4956 13.4 52.9556 12 55.4956 12C57.4956 12 58.7956 12.79 59.3456 14.37C59.3764 14.4294 59.3929 14.4951 59.3938 14.5619C59.3947 14.6288 59.38 14.695 59.3509 14.7551C59.3218 14.8153 59.279 14.8679 59.226 14.9087C59.173 14.9494 59.1112 14.9773 59.0456 14.99L58.2656 15.26C57.9256 15.38 57.7856 15.31 57.6656 14.96C57.4999 14.5329 57.1966 14.1731 56.8036 13.9377C56.4106 13.7023 55.9504 13.6045 55.4956 13.66C54.0256 13.66 53.2256 14.37 53.2256 15.66V18.84C53.2256 20.15 54.0356 20.84 55.4956 20.84C56.9556 20.84 57.8556 20.17 57.8556 19.19V18.45H55.6856C55.3256 18.45 55.1956 18.31 55.1956 17.96V17.28C55.1956 16.93 55.3256 16.8 55.6856 16.8H59.0756Z" fill="#fff"/>
<path d="M63.6855 15.74C63.6855 13.43 65.1456 12.04 67.6856 12.04C70.2256 12.04 71.6856 13.43 71.6856 15.74V18.82C71.6856 21.13 70.2156 22.52 67.6856 22.52C65.1556 22.52 63.6855 21.13 63.6855 18.82V15.74ZM69.9955 15.74C69.9955 14.44 69.1855 13.74 67.7355 13.74C66.2855 13.74 65.4655 14.45 65.4655 15.74V18.84C65.4655 20.15 66.2755 20.84 67.7355 20.84C69.1955 20.84 69.9955 20.12 69.9955 18.84V15.74Z" fill="#fff"/>
<path d="M76.3955 12.54C76.3955 12.32 76.4655 12.25 76.6855 12.25H77.1455C77.3655 12.25 77.4155 12.32 77.4155 12.54V22.02C77.4155 22.24 77.4155 22.31 77.1455 22.31H76.6855C76.4655 22.31 76.3955 22.24 76.3955 22.02V12.54Z" fill="#fff"/>
<path d="M86.5254 12.25C87.3582 12.25 88.1568 12.5808 88.7457 13.1697C89.3346 13.7585 89.6654 14.5572 89.6654 15.39C89.6654 16.2228 89.3346 17.0215 88.7457 17.6103C88.1568 18.1992 87.3582 18.53 86.5254 18.53H83.5254V22.02C83.5254 22.24 83.4754 22.31 83.2654 22.31H82.7954C82.5854 22.31 82.5054 22.24 82.5054 22.02V12.54C82.5054 12.32 82.5854 12.25 82.7954 12.25H86.5254ZM86.4354 17.54C86.7217 17.54 87.0052 17.4836 87.2697 17.3741C87.5341 17.2645 87.7745 17.1039 87.9769 16.9015C88.1793 16.6991 88.3399 16.4587 88.4495 16.1943C88.559 15.9298 88.6154 15.6463 88.6154 15.36C88.6154 15.0737 88.559 14.7902 88.4495 14.5257C88.3399 14.2613 88.1793 14.0209 87.9769 13.8185C87.7745 13.6161 87.5341 13.4555 87.2697 13.3459C87.0052 13.2364 86.7217 13.18 86.4354 13.18H83.4354V17.54H86.4354Z" fill="#fff"/>
<path d="M97.4753 12.0501C98.2474 11.9649 99.0263 12.131 99.6965 12.5237C100.366 12.9165 100.892 13.5149 101.195 14.2301C101.275 14.3901 101.195 14.5201 101.035 14.6001L100.595 14.8001C100.415 14.8701 100.345 14.8601 100.235 14.6701C100.009 14.1393 99.6192 13.6943 99.123 13.3995C98.6269 13.1047 98.0498 12.9753 97.4753 13.0301C95.7853 13.0301 94.8653 13.7001 94.8653 14.9001C94.8555 15.2668 94.9786 15.6248 95.2121 15.9078C95.4455 16.1908 95.7734 16.3799 96.1353 16.4401C96.6731 16.6155 97.2308 16.723 97.7953 16.7601C98.4786 16.7965 99.1527 16.9347 99.7953 17.1701C100.288 17.326 100.712 17.6466 100.996 18.0782C101.28 18.5098 101.407 19.026 101.355 19.5401C101.355 21.4101 99.9953 22.5401 97.4953 22.5401C96.6753 22.6339 95.8479 22.4439 95.151 22.0017C94.4541 21.5596 93.9297 20.8919 93.6653 20.1101C93.6476 20.0745 93.6381 20.0354 93.6373 19.9956C93.6365 19.9558 93.6446 19.9164 93.6608 19.8801C93.677 19.8438 93.7011 19.8115 93.7313 19.7856C93.7614 19.7596 93.7969 19.7407 93.8353 19.7301L94.2753 19.5701C94.3099 19.5559 94.3472 19.5491 94.3846 19.5501C94.422 19.5511 94.4588 19.5599 94.4927 19.5759C94.5265 19.5919 94.5567 19.6147 94.5812 19.643C94.6058 19.6713 94.6242 19.7043 94.6353 19.7401C94.859 20.305 95.2568 20.784 95.771 21.1077C96.2852 21.4313 96.8892 21.5828 97.4953 21.5401C99.3853 21.5401 100.315 20.8801 100.315 19.5401C100.333 19.1879 100.225 18.8408 100.011 18.5606C99.7965 18.2805 99.4898 18.0854 99.1453 18.0101C98.6279 17.8558 98.0943 17.7618 97.5553 17.7301L96.4753 17.5901C96.1373 17.5184 95.8035 17.4282 95.4753 17.3201C95.1511 17.2222 94.8489 17.0626 94.5853 16.8501C94.32 16.6099 94.1109 16.3143 93.9726 15.9842C93.8344 15.6541 93.7704 15.2977 93.7853 14.9401C93.8553 13.1901 95.1653 12.0501 97.4753 12.0501Z" fill="#fff"/>
<path d="M106.745 18.89C106.787 19.5972 107.098 20.2615 107.614 20.7472C108.13 21.2329 108.812 21.5033 109.52 21.5033C110.228 21.5033 110.91 21.2329 111.426 20.7472C111.942 20.2615 112.252 19.5972 112.295 18.89V12.54C112.295 12.32 112.365 12.25 112.585 12.25H113.045C113.265 12.25 113.335 12.32 113.335 12.54V18.88C113.335 21.15 111.995 22.52 109.525 22.52C107.055 22.52 105.715 21.15 105.715 18.88V12.54C105.715 12.32 105.785 12.25 105.995 12.25H106.465C106.675 12.25 106.745 12.32 106.745 12.54V18.89Z" fill="#fff"/>
<path d="M127.136 12.25C127.356 12.25 127.426 12.32 127.426 12.54V22.02C127.426 22.24 127.356 22.31 127.136 22.31H126.716C126.506 22.31 126.436 22.24 126.436 22.02V16.25C126.436 15.4105 126.493 14.5719 126.606 13.74H126.546C126.234 14.5007 125.869 15.2391 125.456 15.95L123.306 19.74C123.28 19.8058 123.234 19.862 123.175 19.9013C123.116 19.9405 123.047 19.961 122.976 19.96H122.696C122.624 19.9604 122.554 19.9397 122.493 19.9007C122.433 19.8616 122.385 19.8058 122.356 19.74L120.176 15.91C119.789 15.2093 119.455 14.4806 119.176 13.73H119.116C119.218 14.5695 119.272 15.4143 119.276 16.26V22.02C119.276 22.24 119.206 22.31 118.986 22.31H118.596C118.376 22.31 118.306 22.24 118.306 22.02V12.54C118.306 12.32 118.376 12.25 118.596 12.25H118.956C119.038 12.2424 119.121 12.2603 119.192 12.3015C119.264 12.3427 119.321 12.4051 119.356 12.48L122.856 18.7L126.336 12.54C126.446 12.33 126.506 12.3 126.726 12.3L127.136 12.25Z" fill="#fff"/>
<path d="M12.7954 20.79V28.02C12.7954 28.2972 12.6853 28.563 12.4893 28.7589C12.2934 28.9549 12.0276 29.065 11.7504 29.065C11.4733 29.065 11.2075 28.9549 11.0115 28.7589C10.8155 28.563 10.7054 28.2972 10.7054 28.02V20.8C10.9964 21.0125 11.3452 21.1311 11.7054 21.14C12.098 21.1512 12.4827 21.0277 12.7954 20.79ZM21.6954 18.7C21.4302 18.7 21.1758 18.8054 20.9883 18.9929C20.8008 19.1804 20.6954 19.4348 20.6954 19.7V20.96C20.6954 21.2372 20.8055 21.503 21.0015 21.6989C21.1974 21.8949 21.4632 22.005 21.7404 22.005C22.0176 22.005 22.2834 21.8949 22.4793 21.6989C22.6753 21.503 22.7854 21.2372 22.7854 20.96V19.75C22.7932 19.6066 22.77 19.4632 22.7174 19.3296C22.6648 19.196 22.5841 19.0752 22.4806 18.9756C22.3772 18.876 22.2535 18.7998 22.1181 18.7522C21.9826 18.7047 21.8384 18.6869 21.6954 18.7ZM8.43543 23.53C8.0756 23.5192 7.72726 23.4008 7.43543 23.19V30.44C7.43543 30.7185 7.54605 30.9856 7.74297 31.1825C7.93988 31.3794 8.20695 31.49 8.48543 31.49C8.76391 31.49 9.03098 31.3794 9.22789 31.1825C9.42481 30.9856 9.53543 30.7185 9.53543 30.44V23.24C9.20888 23.4511 8.82359 23.5527 8.43543 23.53ZM18.4354 16.53C18.2999 16.5232 18.1645 16.5441 18.0373 16.5913C17.9102 16.6385 17.794 16.7111 17.6957 16.8046C17.5975 16.8982 17.5194 17.0107 17.466 17.1354C17.4127 17.2601 17.3852 17.3944 17.3854 17.53V23.1C17.3854 23.3785 17.496 23.6456 17.6929 23.8425C17.8899 24.0394 18.1569 24.15 18.4354 24.15C18.7139 24.15 18.981 24.0394 19.1779 23.8425C19.3748 23.6456 19.4854 23.3785 19.4854 23.1V17.6C19.4934 17.4557 19.47 17.3114 19.4168 17.177C19.3636 17.0426 19.282 16.9213 19.1774 16.8215C19.0728 16.7217 18.9479 16.6457 18.8112 16.5989C18.6745 16.552 18.5292 16.5353 18.3854 16.55L18.4354 16.53ZM15.1154 18.67C14.7387 18.6674 14.3721 18.5487 14.0654 18.33V25.6C14.0654 25.8785 14.176 26.1456 14.3729 26.3425C14.5699 26.5394 14.8369 26.65 15.1154 26.65C15.3939 26.65 15.6609 26.5394 15.8579 26.3425C16.0548 26.1456 16.1654 25.8785 16.1654 25.6V18.34C15.8482 18.5763 15.4609 18.6995 15.0654 18.69L15.1154 18.67ZM6.16543 24.24V3.93C6.1628 3.68243 6.0626 3.44591 5.8866 3.27178C5.7106 3.09765 5.47301 2.99999 5.22543 3H5.00543C4.75785 2.99999 4.52026 3.09765 4.34426 3.27178C4.16826 3.44591 4.06806 3.68243 4.06543 3.93V24.24C4.06543 24.4893 4.16447 24.7284 4.34075 24.9047C4.51703 25.081 4.75613 25.18 5.00543 25.18H5.22543C5.47474 25.18 5.71383 25.081 5.89011 24.9047C6.0664 24.7284 6.16543 24.4893 6.16543 24.24ZM8.54543 22.76H8.32543C8.07613 22.76 7.83703 22.661 7.66075 22.4847C7.48447 22.3084 7.38543 22.0693 7.38543 21.82V6.35C7.38807 6.10244 7.48826 5.8659 7.66426 5.69178C7.84026 5.51765 8.07785 5.41999 8.32543 5.42H8.54543C8.79301 5.41999 9.0306 5.51765 9.2066 5.69178C9.3826 5.8659 9.4828 6.10244 9.48543 6.35V21.84C9.48543 22.0893 9.38639 22.3284 9.21011 22.5047C9.03383 22.681 8.79473 22.78 8.54543 22.78V22.76ZM11.8554 20.38H11.6254C11.3788 20.38 11.1422 20.282 10.9678 20.1076C10.7934 19.9332 10.6954 19.6967 10.6954 19.45V8.75C10.6941 8.62703 10.7172 8.50502 10.7633 8.39103C10.8094 8.27704 10.8777 8.17334 10.9642 8.08592C11.0507 7.9985 11.1537 7.9291 11.2672 7.88174C11.3807 7.83438 11.5024 7.80999 11.6254 7.81H11.8554C12.103 7.81264 12.3395 7.91283 12.5136 8.08883C12.6878 8.26483 12.7854 8.50242 12.7854 8.75V19.45C12.7854 19.6967 12.6874 19.9332 12.513 20.1076C12.3386 20.282 12.1021 20.38 11.8554 20.38ZM15.1654 17.93H14.9554C14.7078 17.93 14.4702 17.8324 14.2942 17.6582C14.1182 17.4841 14.018 17.2476 14.0154 17V11.24C14.0072 11.1116 14.0254 10.9829 14.069 10.8618C14.1125 10.7408 14.1805 10.6299 14.2686 10.5362C14.3567 10.4424 14.4631 10.3678 14.5813 10.3168C14.6994 10.2659 14.8267 10.2397 14.9554 10.24H15.1754C15.4247 10.24 15.6638 10.339 15.8401 10.5153C16.0164 10.6916 16.1154 10.9307 16.1154 11.18V16.98C16.1167 17.1043 16.0934 17.2276 16.0467 17.3428C16.0001 17.458 15.9311 17.5628 15.8436 17.6512C15.7562 17.7395 15.6522 17.8096 15.5374 17.8575C15.4227 17.9054 15.2997 17.93 15.1754 17.93H15.1654ZM18.4854 15.78H18.2654C18.0161 15.78 17.777 15.681 17.6007 15.5047C17.4244 15.3284 17.3254 15.0893 17.3254 14.84V13.35C17.328 13.1024 17.4282 12.8659 17.6042 12.6918C17.7802 12.5176 18.0178 12.42 18.2654 12.42H18.4854C18.733 12.42 18.9706 12.5176 19.1466 12.6918C19.3226 12.8659 19.4228 13.1024 19.4254 13.35V14.84C19.4254 15.0876 19.3278 15.3252 19.1536 15.5012C18.9795 15.6772 18.743 15.7774 18.4954 15.78H18.4854Z" fill="#fff"/>
</svg>
