<svg width="141" height="31" viewBox="0 0 141 31" fill="none" xmlns="http://www.w3.org/2000/svg">
<path d="M23.0655 13.871C22.6865 14.2523 22.3963 14.7125 22.2155 15.2187C22.0347 15.725 21.9678 16.2649 22.0195 16.8L22.0015 16.782C22.0547 17.4119 21.9697 18.0457 21.7526 18.6394C21.5355 19.233 21.1915 19.7721 20.7446 20.2191C20.2976 20.666 19.7585 21.0101 19.1648 21.2271C18.5712 21.4442 17.9373 21.5292 17.3075 21.476L17.3255 21.494C16.5721 21.4239 15.8154 21.5878 15.1585 21.9635C14.5017 22.3392 13.9767 22.9083 13.6552 23.5933C13.3337 24.2783 13.2312 25.0457 13.3618 25.7911C13.4925 26.5364 13.8498 27.2233 14.3851 27.7581C14.9204 28.2929 15.6076 28.6496 16.353 28.7795C17.0985 28.9095 17.8658 28.8063 18.5505 28.4842C19.2352 28.162 19.8038 27.6366 20.1789 26.9794C20.554 26.3222 20.7173 25.5654 20.6465 24.812L20.6655 24.83C20.6123 24.2002 20.6972 23.5663 20.9143 22.9726C21.1314 22.379 21.4755 21.8399 21.9224 21.3929C22.3694 20.946 22.9085 20.6019 23.5021 20.3849C24.0958 20.1678 24.7296 20.0828 25.3595 20.136L25.3405 20.118C25.9559 20.1733 26.5754 20.0724 27.1415 19.8246C27.7075 19.5768 28.2019 19.1901 28.5787 18.7004C28.9555 18.2107 29.2027 17.6337 29.2971 17.0231C29.3916 16.4124 29.3304 15.7878 29.1192 15.207C28.908 14.6263 28.5536 14.1083 28.0889 13.701C27.6242 13.2937 27.0642 13.0103 26.4608 12.8771C25.8574 12.7439 25.2301 12.7651 24.6371 12.9388C24.0441 13.1126 23.5046 13.4332 23.0685 13.871H23.0655Z" fill="#fff"/>
<path d="M15.6886 19.136L15.6696 19.118C16.2049 19.1719 16.7455 19.1062 17.2524 18.9256C17.7592 18.745 18.2196 18.4541 18.6002 18.0738C18.9807 17.6935 19.2721 17.2333 19.453 16.7266C19.634 16.2199 19.7001 15.6794 19.6466 15.144L19.6656 15.162C19.6124 14.5321 19.6974 13.8983 19.9144 13.3046C20.1315 12.711 20.4756 12.1719 20.9225 11.7249C21.3695 11.278 21.9086 10.9339 22.5022 10.7169C23.0959 10.4998 23.7297 10.4148 24.3596 10.468L24.3406 10.45C25.0941 10.5208 25.851 10.3574 26.5082 9.9821C27.1655 9.60684 27.6909 9.03797 28.0129 8.3531C28.3349 7.66824 28.4378 6.90071 28.3076 6.1552C28.1774 5.40969 27.8204 4.72251 27.2852 4.18737C26.7501 3.65224 26.0629 3.2952 25.3174 3.16498C24.5719 3.03475 23.8044 3.13766 23.1195 3.45968C22.4346 3.78169 21.8658 4.30714 21.4905 4.96435C21.1152 5.62155 20.9518 6.37852 21.0226 7.132L21.0046 7.113C21.0579 7.74289 20.9731 8.37683 20.7561 8.97055C20.5391 9.56427 20.195 10.1035 19.7481 10.5505C19.3011 10.9974 18.7619 11.3415 18.1682 11.5585C17.5744 11.7755 16.9405 11.8603 16.3106 11.807L16.3286 11.826C15.7933 11.7721 15.2526 11.8378 14.7458 12.0184C14.239 12.1989 13.7786 12.4899 13.398 12.8702C13.0174 13.2505 12.7261 13.7107 12.5451 14.2174C12.3642 14.7241 12.2981 15.2646 12.3516 15.8L12.3336 15.782C12.3866 16.4118 12.3015 17.0456 12.0844 17.6392C11.8672 18.2327 11.5232 18.7718 11.0763 19.2187C10.6294 19.6656 10.0904 20.0096 9.4968 20.2268C8.90324 20.4439 8.26945 20.529 7.63964 20.476L7.65764 20.494C6.90416 20.4232 6.14719 20.5866 5.48998 20.9619C4.83278 21.3372 4.30733 21.906 3.98532 22.5909C3.6633 23.2758 3.56038 24.0433 3.69061 24.7888C3.82084 25.5343 4.17788 26.2215 4.71301 26.7566C5.24815 27.2918 5.93533 27.6488 6.68084 27.779C7.42635 27.9092 8.19388 27.8063 8.87875 27.4843C9.56361 27.1623 10.1325 26.6369 10.5077 25.9797C10.883 25.3224 11.0464 24.5655 10.9756 23.812L10.9946 23.83C10.9414 23.2001 11.0264 22.5663 11.2435 21.9726C11.4605 21.379 11.8046 20.8399 12.2515 20.3929C12.6985 19.946 13.2376 19.6019 13.8312 19.3849C14.4249 19.1678 15.0587 19.0828 15.6886 19.136Z" fill="#fff"/>
<path d="M8.9867 17.1289C9.36572 16.7477 9.6559 16.2875 9.83654 15.7812C10.0172 15.2749 10.0838 14.7349 10.0317 14.1999L10.0507 14.2179C9.99749 13.5879 10.0824 12.9538 10.2997 12.36C10.5169 11.7662 10.8611 11.227 11.3083 10.78C11.7555 10.333 12.2948 9.98907 12.8887 9.77212C13.4826 9.55516 14.1167 9.47046 14.7467 9.52394L14.7277 9.50594C15.4809 9.57651 16.2376 9.41302 16.8945 9.03778C17.5514 8.66255 18.0765 8.09382 18.3984 7.40917C18.7202 6.72451 18.823 5.95726 18.6928 5.21203C18.5626 4.4668 18.2056 3.77988 17.6707 3.24494C17.1358 2.71 16.4488 2.35308 15.7036 2.22286C14.9584 2.09263 14.1911 2.19545 13.5065 2.51727C12.8218 2.83909 12.2531 3.36426 11.8779 4.02116C11.5026 4.67806 11.3391 5.43472 11.4097 6.18794L11.3917 6.16994C11.4449 6.79979 11.3599 7.43366 11.1428 8.0273C10.9257 8.62094 10.5817 9.16005 10.1348 9.60701C9.68781 10.0539 9.14869 10.398 8.55505 10.615C7.96141 10.8321 7.32755 10.9171 6.6977 10.8639L6.7157 10.8819C6.10027 10.8267 5.48086 10.9278 4.91488 11.1757C4.3489 11.4236 3.85465 11.8104 3.47794 12.3002C3.10123 12.7899 2.85425 13.3669 2.75987 13.9775C2.6655 14.5882 2.72679 15.2128 2.93806 15.7934C3.14933 16.3741 3.50376 16.892 3.96849 17.2992C4.43322 17.7065 4.99322 17.9898 5.5966 18.123C6.19997 18.2561 6.8272 18.2348 7.42017 18.0611C8.01313 17.8873 8.55263 17.5667 8.98869 17.1289H8.9867Z" fill="#fff"/>
<path d="M39.9634 7.15503H42.9334V21.608H39.9634V7.15503Z" fill="#fff"/>
<path d="M44.6154 16.6591C44.6113 15.6205 44.9155 14.6039 45.4895 13.7383C46.0635 12.8727 46.8815 12.1969 47.8399 11.7966C48.7983 11.3962 49.8539 11.2893 50.8731 11.4894C51.8923 11.6895 52.8292 12.1875 53.5651 12.9205C54.301 13.6534 54.8028 14.5883 55.007 15.6067C55.2112 16.6251 55.1085 17.6812 54.712 18.6412C54.3155 19.6011 53.643 20.4219 52.7797 20.9993C51.9163 21.5768 50.9011 21.8851 49.8624 21.8851C49.173 21.893 48.4889 21.7633 47.8501 21.5037C47.2113 21.2441 46.6307 20.8598 46.1422 20.3733C45.6536 19.8867 45.267 19.3076 45.0049 18.6699C44.7427 18.0322 44.6103 17.3486 44.6154 16.6591ZM52.1394 16.6591C52.127 16.2114 51.9829 15.7773 51.7252 15.411C51.4674 15.0448 51.1074 14.7626 50.6902 14.5999C50.2729 14.4371 49.817 14.4009 49.3793 14.4959C48.9416 14.5909 48.5416 14.8127 48.2293 15.1338C47.9171 15.4548 47.7063 15.8608 47.6236 16.301C47.5408 16.7411 47.5895 17.1959 47.7638 17.6085C47.9381 18.0211 48.2301 18.3731 48.6033 18.6206C48.9766 18.8681 49.4146 19.0001 49.8624 19.0001C50.1691 19.0083 50.4742 18.9528 50.7585 18.8372C51.0427 18.7216 51.2999 18.5484 51.5138 18.3285C51.7277 18.1085 51.8938 17.8466 52.0014 17.5593C52.1091 17.272 52.1561 16.9655 52.1394 16.6591Z" fill="#fff"/>
<path d="M66.9464 11.7091V21.1091C66.9464 24.4351 64.3524 25.8411 61.7194 25.8411C60.7924 25.9105 59.8641 25.7232 59.0364 25.2999C58.2088 24.8765 57.5137 24.2334 57.0274 23.4411L59.5614 21.9761C59.7658 22.3891 60.0915 22.7298 60.4948 22.9527C60.8982 23.1755 61.36 23.2699 61.8184 23.2231C62.1114 23.2637 62.4098 23.2379 62.6915 23.1476C62.9731 23.0573 63.2309 22.9048 63.4457 22.7015C63.6605 22.4981 63.8268 22.2491 63.9324 21.9727C64.0379 21.6964 64.0799 21.3999 64.0554 21.1051V20.2001C63.7076 20.6256 63.265 20.9637 62.7629 21.1872C62.2608 21.4107 61.7134 21.5134 61.1644 21.4871C59.8582 21.4459 58.6193 20.8981 57.7099 19.9595C56.8005 19.021 56.292 17.7654 56.292 16.4586C56.292 15.1518 56.8005 13.8962 57.7099 12.9577C58.6193 12.0191 59.8582 11.4713 61.1644 11.4301C61.7134 11.4038 62.2608 11.5065 62.7629 11.73C63.265 11.9535 63.7076 12.2916 64.0554 12.7171V11.7071L66.9464 11.7091ZM64.0564 16.4601C64.0764 15.9815 63.9526 15.5078 63.7011 15.1001C63.4496 14.6923 63.0818 14.3692 62.6451 14.1723C62.2084 13.9753 61.7228 13.9136 61.2507 13.995C60.7786 14.0764 60.3417 14.2972 59.9961 14.6291C59.6506 14.9609 59.4123 15.3885 59.3118 15.8569C59.2114 16.3253 59.2534 16.8131 59.4326 17.2574C59.6117 17.7017 59.9197 18.0823 60.3169 18.3501C60.7141 18.6179 61.1824 18.7607 61.6614 18.7601C61.9735 18.7819 62.2866 18.7381 62.5807 18.6315C62.8748 18.5249 63.1433 18.3578 63.3689 18.1412C63.5945 17.9245 63.7723 17.663 63.8907 17.3734C64.0091 17.0839 64.0656 16.7728 64.0564 16.4601Z" fill="#fff"/>
<path d="M68.6286 16.6591C68.6245 15.6205 68.9286 14.6039 69.5027 13.7383C70.0767 12.8727 70.8947 12.1969 71.8531 11.7966C72.8115 11.3962 73.8671 11.2893 74.8863 11.4894C75.9055 11.6895 76.8424 12.1875 77.5783 12.9205C78.3142 13.6534 78.816 14.5883 79.0202 15.6067C79.2244 16.6251 79.1217 17.6812 78.7252 18.6412C78.3287 19.6011 77.6562 20.4219 76.7929 20.9993C75.9295 21.5768 74.9143 21.8851 73.8756 21.8851C73.1862 21.893 72.502 21.7633 71.8633 21.5037C71.2245 21.2441 70.6439 20.8598 70.1554 20.3733C69.6668 19.8867 69.2802 19.3076 69.0181 18.6699C68.7559 18.0322 68.6235 17.3486 68.6286 16.6591ZM76.1526 16.6591C76.1402 16.2114 75.9961 15.7773 75.7384 15.411C75.4806 15.0448 75.1206 14.7626 74.7034 14.5999C74.2861 14.4371 73.8301 14.4009 73.3925 14.4959C72.9548 14.5909 72.5548 14.8127 72.2425 15.1338C71.9303 15.4548 71.7195 15.8608 71.6367 16.301C71.5539 16.7411 71.6027 17.1959 71.777 17.6085C71.9513 18.0211 72.2433 18.3731 72.6165 18.6206C72.9898 18.8681 73.4277 19.0001 73.8756 19.0001C74.1823 19.0083 74.4874 18.9528 74.7716 18.8372C75.0559 18.7216 75.3131 18.5484 75.527 18.3285C75.7409 18.1085 75.907 17.8466 76.0146 17.5593C76.1223 17.272 76.1693 16.9655 76.1526 16.6591Z" fill="#fff"/>
<path d="M80.5073 9.05593C80.5073 8.70348 80.6118 8.35895 80.8076 8.06591C81.0034 7.77286 81.2818 7.54445 81.6074 7.40958C81.933 7.2747 82.2913 7.23941 82.637 7.30817C82.9826 7.37693 83.3002 7.54665 83.5494 7.79587C83.7986 8.04508 83.9683 8.3626 84.0371 8.70828C84.1058 9.05395 84.0705 9.41225 83.9357 9.73787C83.8008 10.0634 83.5724 10.3418 83.2793 10.5376C82.9863 10.7334 82.6418 10.8379 82.2893 10.8379C81.8182 10.8332 81.3676 10.644 81.0344 10.3108C80.7013 9.97763 80.512 9.52709 80.5073 9.05593ZM80.8073 11.7089H83.7783V21.6089H80.8033L80.8073 11.7089Z" fill="#fff"/>
<path d="M96.6027 16.659C96.637 17.3133 96.5417 17.9679 96.3221 18.5852C96.1026 19.2025 95.7632 19.7703 95.3234 20.256C94.8837 20.7416 94.3522 21.1356 93.7597 21.4152C93.1671 21.6947 92.5252 21.8544 91.8707 21.885C91.3203 21.915 90.7702 21.8222 90.2601 21.6133C89.75 21.4043 89.2929 21.0845 88.9217 20.677V25.568H85.9517V11.709H88.9217V12.639C89.293 12.2318 89.7503 11.9122 90.2603 11.7035C90.7704 11.4947 91.3204 11.402 91.8707 11.432C92.5253 11.4625 93.1674 11.6221 93.7601 11.9017C94.3528 12.1813 94.8843 12.5753 95.3241 13.0611C95.7639 13.5469 96.1033 14.1149 96.3227 14.7324C96.5421 15.3498 96.6373 16.0046 96.6027 16.659ZM93.6327 16.659C93.6211 16.1957 93.4731 15.7461 93.2072 15.3664C92.9413 14.9868 92.5694 14.694 92.138 14.5248C91.7065 14.3555 91.2347 14.3172 90.7816 14.4148C90.3285 14.5123 89.9143 14.7413 89.5907 15.0731C89.2671 15.405 89.0486 15.8248 88.9625 16.2803C88.8764 16.7357 88.9265 17.2063 89.1066 17.6334C89.2866 18.0605 89.5887 18.4249 89.9749 18.6812C90.3611 18.9374 90.8142 19.0741 91.2777 19.074C91.5959 19.0882 91.9135 19.0349 92.2097 18.9177C92.5058 18.8006 92.7739 18.6221 92.9962 18.3941C93.2186 18.166 93.3902 17.8936 93.4999 17.5946C93.6096 17.2956 93.6549 16.9767 93.6327 16.659Z" fill="#fff"/>
<path d="M105.768 18.6381C105.768 20.9151 103.789 21.8851 101.651 21.8851C100.787 21.9633 99.9193 21.7807 99.1604 21.3606C98.4015 20.9406 97.7861 20.3026 97.3936 19.5291L99.9666 18.0641C100.071 18.4216 100.294 18.7327 100.6 18.9452C100.906 19.1578 101.276 19.2591 101.647 19.2321C102.359 19.2321 102.716 19.0141 102.716 18.6191C102.716 17.5291 97.8446 18.1041 97.8446 14.6791C97.8446 12.5201 99.6666 11.4321 101.726 11.4321C102.5 11.4076 103.266 11.5912 103.945 11.9637C104.624 12.3363 105.191 12.8841 105.586 13.5501L103.052 14.9161C102.941 14.6568 102.756 14.4359 102.52 14.281C102.284 14.1261 102.008 14.0441 101.726 14.0451C101.211 14.0451 100.894 14.2451 100.894 14.5991C100.898 15.7281 105.768 14.9751 105.768 18.6381Z" fill="#fff"/>
<path d="M116.617 11.709V21.609H113.647V20.678C113.304 21.0888 112.869 21.4125 112.377 21.6225C111.885 21.8325 111.351 21.9228 110.817 21.886C108.817 21.886 107.117 20.461 107.117 17.786V11.709H110.087V17.351C110.062 17.5868 110.089 17.8252 110.166 18.0495C110.242 18.2739 110.367 18.4789 110.531 18.6502C110.695 18.8215 110.894 18.955 111.115 19.0415C111.335 19.128 111.572 19.1654 111.809 19.151C112.898 19.151 113.65 18.518 113.65 17.112V11.712L116.617 11.709Z" fill="#fff"/>
<path d="M133.646 15.53V21.608H130.676V15.787C130.676 14.797 130.201 14.164 129.251 14.164C128.261 14.164 127.706 14.857 127.706 16.025V21.608H124.737V15.787C124.737 14.797 124.262 14.164 123.311 14.164C122.321 14.164 121.767 14.857 121.767 16.025V21.608H118.797V11.708H121.767V12.618C122.075 12.2143 122.479 11.8941 122.942 11.6868C123.406 11.4794 123.914 11.3915 124.42 11.431C124.928 11.4061 125.434 11.5134 125.889 11.7423C126.343 11.9711 126.73 12.3139 127.013 12.737C127.342 12.2943 127.778 11.9423 128.28 11.7139C128.782 11.4855 129.334 11.3882 129.884 11.431C132.157 11.432 133.646 13.055 133.646 15.53Z" fill="#fff"/>
<path d="M136.159 11.648C137.376 11.648 138.363 10.6612 138.363 9.44399C138.363 8.22675 137.376 7.23999 136.159 7.23999C134.942 7.23999 133.955 8.22675 133.955 9.44399C133.955 10.6612 134.942 11.648 136.159 11.648Z" fill="#fff"/>
</svg>
