<svg width="339" height="339" viewBox="0 0 339 339" fill="none" xmlns="http://www.w3.org/2000/svg">
<path fill-rule="evenodd" clip-rule="evenodd" d="M167.765 0.0135071C168.216 0.0093934 168.668 0.00732422 169.12 0.00732422C169.572 0.00732422 170.024 0.0093934 170.476 0.0135071L169.867 77.1432C169.618 77.1411 169.369 77.1401 169.12 77.1401C168.871 77.1401 168.622 77.1411 168.373 77.1432L167.765 0.0135071ZM177.222 0.199654C178.125 0.24182 179.027 0.292202 179.928 0.348766L175.056 77.3273C174.563 77.2964 174.069 77.2697 173.575 77.246L177.222 0.199654ZM158.313 0.348766C159.212 0.292202 160.114 0.24182 161.017 0.199654L164.666 77.246C164.171 77.2697 163.677 77.2964 163.184 77.3273L158.313 0.348766ZM186.666 0.910282C187.567 1.00284 188.467 1.10362 189.365 1.21058L180.206 77.7983C179.717 77.7396 179.227 77.6852 178.735 77.6337L186.666 0.910282ZM148.875 1.21058C149.772 1.10362 150.673 1.00284 151.575 0.910282L159.506 77.6337C159.013 77.6852 158.523 77.7396 158.034 77.7983L148.875 1.21058ZM196.074 2.14957C196.968 2.29355 197.862 2.4437 198.753 2.60208L185.308 78.5542C184.825 78.4678 184.339 78.3865 183.854 78.3084L196.074 2.14957ZM139.487 2.60208C140.379 2.4437 141.271 2.29355 142.167 2.14957L154.387 78.3084C153.901 78.3865 153.416 78.4678 152.933 78.5542L139.487 2.60208ZM205.406 3.91848C206.291 4.11182 207.175 4.31236 208.055 4.52011L190.349 79.5939C189.872 79.4808 189.394 79.3728 188.915 79.2669L205.406 3.91848ZM130.186 4.52011C131.066 4.31236 131.949 4.11182 132.834 3.91848L149.326 79.2669C148.846 79.3728 148.368 79.4808 147.891 79.5939L130.186 4.52011ZM214.629 6.21187C215.501 6.45458 216.371 6.7045 217.237 6.96161L195.319 80.9144C194.85 80.7756 194.38 80.6409 193.908 80.5092L214.629 6.21187ZM121.003 6.96161C121.87 6.7045 122.74 6.45458 123.612 6.21187L144.333 80.5092C143.861 80.6409 143.39 80.7756 142.921 80.9144L121.003 6.96161ZM223.707 9.02259C224.563 9.31467 225.417 9.61292 226.268 9.91836L200.206 82.5147C199.745 82.3491 199.283 82.1877 198.82 82.0303L223.707 9.02259ZM111.973 9.91836C112.823 9.61292 113.676 9.31467 114.533 9.02259L139.42 82.0303C138.957 82.1877 138.495 82.3491 138.035 82.5147L111.973 9.91836ZM232.61 12.3414C233.448 12.6808 234.283 13.0273 235.115 13.3801L204.995 84.3885C204.546 84.1982 204.093 84.01 203.639 83.826L232.61 12.3414ZM103.126 13.3801C103.957 13.0273 104.792 12.6808 105.63 12.3414L134.601 83.826C134.147 84.01 133.695 84.1982 133.244 84.3885L103.126 13.3801ZM241.308 16.1548C242.127 16.5415 242.942 16.9354 243.752 17.3344L209.678 86.5328C209.239 86.3158 208.796 86.1029 208.352 85.8931L241.308 16.1548ZM94.4878 17.3344C95.2992 16.9354 96.1137 16.5425 96.9324 16.1548L129.888 85.8931C129.444 86.1029 129.002 86.3158 128.562 86.5328L94.4878 17.3344ZM249.773 20.4516C250.57 20.8836 251.36 21.3217 252.148 21.766L214.237 88.9393C213.808 88.6976 213.378 88.459 212.946 88.2246L249.773 20.4516ZM86.0916 21.766C86.8794 21.3217 87.6713 20.8836 88.4663 20.4516L125.294 88.2246C124.862 88.459 124.432 88.6976 124.004 88.9393L86.0916 21.766ZM257.982 25.2153C258.751 25.6905 259.516 26.1718 260.277 26.6593L218.656 91.5999C218.243 91.3346 217.826 91.0723 217.409 90.8142L257.982 25.2153ZM77.9639 26.6593C78.7249 26.1718 79.4891 25.6905 80.2583 25.2153L120.832 90.8142C120.414 91.0723 119.998 91.3346 119.584 91.5999L77.9639 26.6593ZM265.906 30.4285C266.646 30.9458 267.381 31.4682 268.114 31.9979L222.925 94.5073C222.526 94.2193 222.125 93.9334 221.722 93.6516L265.906 30.4285ZM70.1272 31.9979C70.8584 31.4682 71.5948 30.9458 72.3352 30.4285L116.519 93.6516C116.116 93.9334 115.715 94.2193 115.316 94.5073L70.1272 31.9979ZM273.52 36.0725C274.23 36.631 274.935 37.1935 275.636 37.7623L227.028 97.6512C226.645 97.3406 226.26 97.0331 225.873 96.7298L273.52 36.0725ZM62.6042 37.7623C63.3045 37.1935 64.01 36.631 64.7197 36.0725L112.367 96.7298C111.98 97.0331 111.596 97.3406 111.213 97.6512L62.6042 37.7623ZM280.806 42.1321C281.483 42.7286 282.156 43.3292 282.823 43.936L230.95 101.021C230.586 100.69 230.219 100.361 229.849 100.036L280.806 42.1321ZM55.4174 43.936C56.0849 43.3292 56.7575 42.7286 57.4352 42.1321L108.391 100.036C108.022 100.361 107.655 100.69 107.29 101.021L55.4174 43.936ZM287.74 48.5866C288.383 49.219 289.022 49.8577 289.654 50.5005L234.68 104.606C234.335 104.255 233.986 103.906 233.635 103.561L287.74 48.5866ZM48.5866 50.5005C49.2191 49.8577 49.8567 49.219 50.5005 48.5866L104.606 103.561C104.254 103.906 103.905 104.255 103.56 104.606L48.5866 50.5005ZM294.305 55.4174C294.912 56.0849 295.512 56.7575 296.109 57.4352L238.205 108.392C237.88 108.022 237.551 107.655 237.219 107.291L294.305 55.4174ZM42.1311 57.4352C42.7276 56.7575 43.3292 56.0849 43.936 55.4174L101.02 107.291C100.689 107.655 100.361 108.022 100.035 108.392L42.1311 57.4352ZM300.479 62.6052C301.047 63.3056 301.61 64.0111 302.168 64.7207L241.511 112.368C241.208 111.98 240.9 111.596 240.59 111.213L300.479 62.6052ZM36.0725 64.7207C36.63 64.0111 37.1935 63.3056 37.7623 62.6052L97.6502 111.213C97.3406 111.596 97.0331 111.98 96.7287 112.368L36.0725 64.7207ZM306.243 70.1272C306.773 70.8594 307.295 71.5948 307.812 72.3352L244.589 116.519C244.307 116.116 244.021 115.715 243.734 115.316L306.243 70.1272ZM30.4275 72.3352C30.9448 71.5948 31.4682 70.8594 31.9969 70.1272L94.5073 115.316C94.2183 115.715 93.9334 116.116 93.6516 116.519L30.4275 72.3352ZM311.582 77.9639C312.069 78.7249 312.55 79.4901 313.025 80.2583L247.427 120.832C247.168 120.415 246.906 119.998 246.641 119.584L311.582 77.9639ZM25.2143 80.2583C25.6905 79.4901 26.1718 78.7249 26.6593 77.9639L91.5999 119.585C91.3346 119.998 91.0723 120.415 90.8132 120.832L25.2143 80.2583ZM316.475 86.0926C316.919 86.8804 317.357 87.6713 317.789 88.4673L250.016 125.295C249.782 124.863 249.543 124.433 249.301 124.004L316.475 86.0926ZM20.4506 88.4673C20.8825 87.6713 21.3217 86.8804 21.766 86.0926L88.9383 124.004C88.6966 124.433 88.4591 124.863 88.2236 125.295L20.4506 88.4673ZM320.906 94.4888C321.305 95.2992 321.699 96.1137 322.086 96.9323L252.348 129.888C252.138 129.444 251.925 129.002 251.708 128.563L320.906 94.4888ZM16.1548 96.9323C16.5415 96.1137 16.9344 95.2992 17.3334 94.4888L86.5318 128.563C86.3158 129.002 86.1029 129.444 85.8931 129.889L16.1548 96.9323ZM324.861 103.126C325.213 103.958 325.56 104.793 325.899 105.631L254.415 134.602C254.231 134.147 254.043 133.695 253.852 133.244L324.861 103.126ZM12.3403 105.631C12.6808 104.793 13.0263 103.958 13.3791 103.126L84.3885 133.245C84.1972 133.695 84.0101 134.147 83.826 134.602L12.3403 105.631ZM328.322 111.973C328.628 112.824 328.926 113.677 329.218 114.534L256.211 139.421C256.053 138.957 255.892 138.496 255.726 138.035L328.322 111.973ZM9.02159 114.534C9.31366 113.677 9.61291 112.824 9.91733 111.973L82.5147 138.035C82.3491 138.496 82.1877 138.957 82.0293 139.421L9.02159 114.534ZM331.279 121.004C331.536 121.87 331.786 122.74 332.029 123.612L257.732 144.333C257.6 143.861 257.465 143.391 257.326 142.922L331.279 121.004ZM6.21087 123.612C6.45461 122.74 6.7045 121.87 6.96161 121.004L80.9145 142.922C80.7756 143.391 80.6399 143.861 80.5082 144.333L6.21087 123.612ZM333.721 130.186C333.928 131.066 334.129 131.95 334.322 132.834L258.973 149.326C258.868 148.847 258.76 148.369 258.647 147.891L333.721 130.186ZM3.91744 132.835C4.11182 131.95 4.31236 131.066 4.52011 130.186L79.5929 147.891C79.4808 148.369 79.3718 148.847 79.2669 149.326L3.91744 132.835ZM335.639 139.488C335.797 140.379 335.947 141.271 336.091 142.167L259.932 154.387C259.854 153.902 259.773 153.416 259.687 152.933L335.639 139.488ZM2.14957 142.167C2.29252 141.272 2.44369 140.379 2.60105 139.488L78.5532 152.933C78.4678 153.416 78.3855 153.902 78.3084 154.387L2.14957 142.167ZM337.03 148.876C337.137 149.773 337.238 150.673 337.33 151.575L260.607 159.506C260.556 159.014 260.501 158.523 260.443 158.035L337.03 148.876ZM0.909278 151.575C1.00287 150.673 1.10262 149.773 1.21061 148.876L77.7973 158.035C77.7387 158.523 77.6841 159.014 77.6338 159.506L0.909278 151.575ZM337.892 158.313C337.949 159.213 337.999 160.114 338.041 161.018L260.995 164.666C260.971 164.172 260.944 163.677 260.914 163.184L337.892 158.313ZM0.198618 161.018C0.241813 160.115 0.291174 159.213 0.348766 158.313L77.3273 163.185C77.2964 163.678 77.2686 164.172 77.245 164.666L0.198618 161.018ZM338.227 167.765C338.231 168.216 338.234 168.669 338.234 169.12C338.234 169.573 338.231 170.024 338.227 170.476L261.098 169.868C261.1 169.619 261.101 169.37 261.101 169.12C261.101 168.872 261.1 168.623 261.098 168.374L338.227 167.765ZM0.00732422 169.12C0.00732422 168.669 0.00938611 168.216 0.0124714 167.765L77.1432 168.374C77.1411 168.623 77.1401 168.872 77.1401 169.12C77.1401 169.37 77.1411 169.619 77.1432 169.868L0.0124714 170.476C0.00938611 170.024 0.00732422 169.573 0.00732422 169.12ZM338.041 177.222C337.999 178.126 337.949 179.028 337.892 179.928L260.914 175.057C260.944 174.564 260.971 174.07 260.995 173.575L338.041 177.222ZM0.348766 179.928C0.291174 179.028 0.241813 178.126 0.198618 177.223L77.245 173.575C77.2686 174.07 77.2964 174.564 77.3273 175.057L0.348766 179.928ZM337.33 186.666C337.238 187.567 337.137 188.467 337.03 189.366L260.443 180.207C260.501 179.717 260.556 179.227 260.607 178.735L337.33 186.666ZM1.21061 189.366C1.10262 188.468 1.00287 187.567 0.909278 186.666L77.6338 178.735C77.6841 179.228 77.7387 179.717 77.7973 180.207L1.21061 189.366ZM336.091 196.074C335.947 196.969 335.797 197.862 335.639 198.753L259.687 185.308C259.773 184.825 259.854 184.34 259.932 183.854L336.091 196.074ZM2.60105 198.754C2.44369 197.862 2.29252 196.969 2.14957 196.074L78.3084 183.854C78.3855 184.34 78.4678 184.825 78.5532 185.308L2.60105 198.754ZM334.322 205.407C334.129 206.292 333.928 207.175 333.721 208.055L258.647 190.349C258.76 189.873 258.868 189.395 258.974 188.915L334.322 205.407ZM4.52011 208.055C4.31236 207.175 4.11182 206.292 3.91744 205.407L79.2669 188.915C79.3718 189.395 79.4808 189.873 79.5929 190.349L4.52011 208.055ZM332.029 214.629C331.786 215.501 331.536 216.371 331.279 217.238L257.326 195.32C257.465 194.851 257.6 194.38 257.732 193.908L332.029 214.629ZM6.96161 217.238C6.7045 216.371 6.45461 215.501 6.21087 214.629L80.5082 193.908C80.6399 194.38 80.7756 194.851 80.9145 195.32L6.96161 217.238ZM329.218 223.708C328.926 224.563 328.628 225.417 328.322 226.268L255.726 200.206C255.892 199.746 256.053 199.283 256.211 198.821L329.218 223.708ZM9.91836 226.268C9.61292 225.418 9.31366 224.564 9.02159 223.708L82.0293 198.821C82.1877 199.283 82.3491 199.746 82.5147 200.206L9.91836 226.268ZM325.899 232.611C325.56 233.449 325.213 234.284 324.861 235.115L253.852 204.996C254.043 204.546 254.231 204.093 254.415 203.64L325.899 232.611ZM13.3791 235.115C13.0263 234.284 12.6808 233.449 12.3403 232.611L83.826 203.64C84.0101 204.093 84.1972 204.546 84.3885 204.996L13.3791 235.115ZM322.086 241.308C321.699 242.127 321.305 242.942 320.906 243.753L251.708 209.679C251.925 209.239 252.138 208.796 252.348 208.353L322.086 241.308ZM17.3344 243.753C16.9344 242.942 16.5415 242.127 16.1548 241.308L85.8931 208.353C86.1029 208.796 86.3158 209.239 86.5318 209.679L17.3344 243.753ZM317.789 249.775C317.357 250.569 316.919 251.361 316.475 252.149L249.301 214.237C249.543 213.809 249.782 213.379 250.016 212.947L317.789 249.775ZM21.766 252.149C21.3217 251.361 20.8825 250.569 20.4506 249.775L88.2236 212.947C88.4591 213.379 88.6966 213.809 88.9383 214.237L21.766 252.149ZM313.025 257.982C312.55 258.752 312.069 259.516 311.582 260.277L246.641 218.657C246.906 218.243 247.168 217.827 247.427 217.409L313.025 257.982ZM26.6593 260.277C26.1718 259.516 25.6905 258.752 25.2143 257.982L90.8132 217.409C91.0723 217.827 91.3346 218.243 91.5999 218.657L26.6593 260.277ZM31.9969 268.114C31.4682 267.382 30.9448 266.646 30.4275 265.906L93.6516 221.722C93.9334 222.125 94.2183 222.526 94.5073 222.925L31.9969 268.114ZM307.812 265.906C307.295 266.646 306.773 267.382 306.243 268.114L243.734 222.925C244.021 222.526 244.307 222.125 244.589 221.722L307.812 265.906ZM302.168 273.521C301.61 274.231 301.047 274.936 300.479 275.637L240.59 227.028C240.9 226.645 241.208 226.26 241.511 225.874L302.168 273.521ZM37.7623 275.637C37.1935 274.936 36.63 274.231 36.0725 273.521L96.7287 225.874C97.0331 226.26 97.3406 226.645 97.6502 227.028L37.7623 275.637ZM296.109 280.806C295.512 281.483 294.912 282.156 294.305 282.823L237.219 230.951C237.551 230.586 237.88 230.219 238.205 229.85L296.109 280.806ZM43.936 282.823C43.3292 282.156 42.7276 281.483 42.1311 280.806L100.035 229.85C100.361 230.219 100.689 230.586 101.02 230.951L43.936 282.823ZM289.654 287.74C289.022 288.384 288.383 289.022 287.74 289.654L233.635 234.681C233.986 234.336 234.335 233.987 234.68 233.635L289.654 287.74ZM50.5005 289.654C49.8567 289.022 49.2191 288.384 48.5866 287.74L103.56 233.635C103.905 233.987 104.254 234.336 104.606 234.681L50.5005 289.654ZM282.823 294.305C282.156 294.912 281.483 295.513 280.806 296.11L229.849 238.206C230.219 237.88 230.586 237.552 230.95 237.22L282.823 294.305ZM57.4352 296.11C56.7575 295.513 56.0849 294.912 55.4174 294.305L107.29 237.22C107.655 237.552 108.022 237.88 108.391 238.206L57.4352 296.11ZM275.636 300.478C274.935 301.047 274.23 301.611 273.52 302.168L225.873 241.512C226.26 241.208 226.645 240.9 227.028 240.591L275.636 300.478ZM64.7197 302.168C64.01 301.611 63.3045 301.047 62.6042 300.478L111.213 240.591C111.596 240.9 111.98 241.208 112.367 241.512L64.7197 302.168ZM72.3352 307.813C71.5948 307.296 70.8584 306.773 70.1272 306.244L115.316 243.733C115.715 244.022 116.116 244.307 116.519 244.589L72.3352 307.813ZM268.114 306.244C267.381 306.773 266.646 307.296 265.906 307.813L221.722 244.589C222.125 244.307 222.526 244.022 222.925 243.733L268.114 306.244ZM260.277 311.582C259.516 312.069 258.751 312.55 257.982 313.026L217.409 247.428C217.826 247.168 218.243 246.906 218.657 246.641L260.277 311.582ZM80.2583 313.026C79.4891 312.55 78.7249 312.069 77.9639 311.582L119.584 246.641C119.998 246.906 120.414 247.168 120.832 247.428L80.2583 313.026ZM252.148 316.475C251.36 316.919 250.57 317.358 249.773 317.79L212.946 250.016C213.378 249.782 213.808 249.544 214.237 249.302L252.148 316.475ZM88.4663 317.79C87.6713 317.358 86.8794 316.919 86.0916 316.475L124.004 249.302C124.432 249.544 124.862 249.782 125.294 250.017L88.4663 317.79ZM243.752 320.906C242.942 321.306 242.127 321.699 241.308 322.086L208.353 252.348C208.796 252.138 209.239 251.925 209.678 251.709L243.752 320.906ZM96.9324 322.086C96.1137 321.699 95.2992 321.306 94.4878 320.906L128.562 251.709C129.002 251.925 129.444 252.138 129.888 252.348L96.9324 322.086ZM235.115 324.862C234.283 325.214 233.448 325.56 232.61 325.9L203.639 254.415C204.093 254.231 204.546 254.044 204.995 253.852L235.115 324.862ZM105.63 325.9C104.792 325.56 103.957 325.214 103.126 324.862L133.244 253.852C133.695 254.044 134.147 254.231 134.601 254.415L105.63 325.9ZM226.268 328.322C225.417 328.628 224.563 328.927 223.707 329.219L198.82 256.212C199.283 256.053 199.745 255.892 200.206 255.726L226.268 328.322ZM114.533 329.219C113.677 328.927 112.824 328.628 111.973 328.323L138.035 255.726C138.495 255.892 138.957 256.053 139.42 256.212L114.533 329.219ZM217.237 331.279C216.371 331.536 215.501 331.786 214.629 332.03L193.908 257.733C194.38 257.601 194.85 257.465 195.319 257.326L217.237 331.279ZM123.612 332.03C122.74 331.786 121.87 331.536 121.003 331.279L142.921 257.326C143.39 257.465 143.861 257.601 144.333 257.733L123.612 332.03ZM208.055 333.721C207.175 333.928 206.291 334.129 205.407 334.323L188.915 258.974C189.394 258.869 189.872 258.76 190.349 258.648L208.055 333.721ZM132.834 334.323C131.949 334.129 131.066 333.928 130.186 333.721L147.891 258.648C148.368 258.76 148.846 258.869 149.326 258.974L132.834 334.323ZM142.167 336.091C141.271 335.948 140.379 335.797 139.488 335.64L152.933 259.688C153.416 259.773 153.901 259.855 154.387 259.932L142.167 336.091ZM198.753 335.64C197.862 335.797 196.969 335.948 196.074 336.091L183.854 259.932C184.339 259.855 184.825 259.773 185.308 259.688L198.753 335.64ZM151.575 337.331C150.673 337.238 149.773 337.138 148.875 337.03L158.034 260.444C158.523 260.502 159.014 260.557 159.506 260.607L151.575 337.331ZM189.365 337.03C188.467 337.138 187.567 337.238 186.666 337.331L178.735 260.607C179.227 260.557 179.717 260.502 180.206 260.444L189.365 337.03ZM161.018 338.042C160.114 337.999 159.212 337.95 158.313 337.892L163.184 260.913C163.677 260.944 164.171 260.972 164.666 260.996L161.018 338.042ZM179.928 337.892C179.027 337.95 178.126 337.999 177.222 338.042L173.575 260.996C174.069 260.972 174.564 260.944 175.056 260.913L179.928 337.892ZM169.12 338.233C168.668 338.233 168.216 338.231 167.765 338.228L168.373 261.098C168.622 261.1 168.871 261.101 169.12 261.101C169.369 261.101 169.618 261.1 169.867 261.098L170.476 338.228C170.22 338.23 169.965 338.231 169.709 338.232C169.513 338.233 169.317 338.233 169.12 338.233Z" fill="url(#paint0_linear_47_200)"/>
<path fill-rule="evenodd" clip-rule="evenodd" d="M167.765 0.0135071C168.216 0.0093934 168.668 0.00732422 169.12 0.00732422C169.572 0.00732422 170.024 0.0093934 170.476 0.0135071L169.867 77.1432C169.618 77.1411 169.369 77.1401 169.12 77.1401C168.871 77.1401 168.622 77.1411 168.373 77.1432L167.765 0.0135071ZM177.222 0.199654C178.125 0.24182 179.027 0.292202 179.928 0.348766L175.056 77.3273C174.563 77.2964 174.069 77.2697 173.575 77.246L177.222 0.199654ZM158.313 0.348766C159.212 0.292202 160.114 0.24182 161.017 0.199654L164.666 77.246C164.171 77.2697 163.677 77.2964 163.184 77.3273L158.313 0.348766ZM186.666 0.910282C187.567 1.00284 188.467 1.10362 189.365 1.21058L180.206 77.7983C179.717 77.7396 179.227 77.6852 178.735 77.6337L186.666 0.910282ZM148.875 1.21058C149.772 1.10362 150.673 1.00284 151.575 0.910282L159.506 77.6337C159.013 77.6852 158.523 77.7396 158.034 77.7983L148.875 1.21058ZM196.074 2.14957C196.968 2.29355 197.862 2.4437 198.753 2.60208L185.308 78.5542C184.825 78.4678 184.339 78.3865 183.854 78.3084L196.074 2.14957ZM139.487 2.60208C140.379 2.4437 141.271 2.29355 142.167 2.14957L154.387 78.3084C153.901 78.3865 153.416 78.4678 152.933 78.5542L139.487 2.60208ZM205.406 3.91848C206.291 4.11182 207.175 4.31236 208.055 4.52011L190.349 79.5939C189.872 79.4808 189.394 79.3728 188.915 79.2669L205.406 3.91848ZM130.186 4.52011C131.066 4.31236 131.949 4.11182 132.834 3.91848L149.326 79.2669C148.846 79.3728 148.368 79.4808 147.891 79.5939L130.186 4.52011ZM214.629 6.21187C215.501 6.45458 216.371 6.7045 217.237 6.96161L195.319 80.9144C194.85 80.7756 194.38 80.6409 193.908 80.5092L214.629 6.21187ZM121.003 6.96161C121.87 6.7045 122.74 6.45458 123.612 6.21187L144.333 80.5092C143.861 80.6409 143.39 80.7756 142.921 80.9144L121.003 6.96161ZM223.707 9.02259C224.563 9.31467 225.417 9.61292 226.268 9.91836L200.206 82.5147C199.745 82.3491 199.283 82.1877 198.82 82.0303L223.707 9.02259ZM111.973 9.91836C112.823 9.61292 113.676 9.31467 114.533 9.02259L139.42 82.0303C138.957 82.1877 138.495 82.3491 138.035 82.5147L111.973 9.91836ZM232.61 12.3414C233.448 12.6808 234.283 13.0273 235.115 13.3801L204.995 84.3885C204.546 84.1982 204.093 84.01 203.639 83.826L232.61 12.3414ZM103.126 13.3801C103.957 13.0273 104.792 12.6808 105.63 12.3414L134.601 83.826C134.147 84.01 133.695 84.1982 133.244 84.3885L103.126 13.3801ZM241.308 16.1548C242.127 16.5415 242.942 16.9354 243.752 17.3344L209.678 86.5328C209.239 86.3158 208.796 86.1029 208.352 85.8931L241.308 16.1548ZM94.4878 17.3344C95.2992 16.9354 96.1137 16.5425 96.9324 16.1548L129.888 85.8931C129.444 86.1029 129.002 86.3158 128.562 86.5328L94.4878 17.3344ZM249.773 20.4516C250.57 20.8836 251.36 21.3217 252.148 21.766L214.237 88.9393C213.808 88.6976 213.378 88.459 212.946 88.2246L249.773 20.4516ZM86.0916 21.766C86.8794 21.3217 87.6713 20.8836 88.4663 20.4516L125.294 88.2246C124.862 88.459 124.432 88.6976 124.004 88.9393L86.0916 21.766ZM257.982 25.2153C258.751 25.6905 259.516 26.1718 260.277 26.6593L218.656 91.5999C218.243 91.3346 217.826 91.0723 217.409 90.8142L257.982 25.2153ZM77.9639 26.6593C78.7249 26.1718 79.4891 25.6905 80.2583 25.2153L120.832 90.8142C120.414 91.0723 119.998 91.3346 119.584 91.5999L77.9639 26.6593ZM265.906 30.4285C266.646 30.9458 267.381 31.4682 268.114 31.9979L222.925 94.5073C222.526 94.2193 222.125 93.9334 221.722 93.6516L265.906 30.4285ZM70.1272 31.9979C70.8584 31.4682 71.5948 30.9458 72.3352 30.4285L116.519 93.6516C116.116 93.9334 115.715 94.2193 115.316 94.5073L70.1272 31.9979ZM273.52 36.0725C274.23 36.631 274.935 37.1935 275.636 37.7623L227.028 97.6512C226.645 97.3406 226.26 97.0331 225.873 96.7298L273.52 36.0725ZM62.6042 37.7623C63.3045 37.1935 64.01 36.631 64.7197 36.0725L112.367 96.7298C111.98 97.0331 111.596 97.3406 111.213 97.6512L62.6042 37.7623ZM280.806 42.1321C281.483 42.7286 282.156 43.3292 282.823 43.936L230.95 101.021C230.586 100.69 230.219 100.361 229.849 100.036L280.806 42.1321ZM55.4174 43.936C56.0849 43.3292 56.7575 42.7286 57.4352 42.1321L108.391 100.036C108.022 100.361 107.655 100.69 107.29 101.021L55.4174 43.936ZM287.74 48.5866C288.383 49.219 289.022 49.8577 289.654 50.5005L234.68 104.606C234.335 104.255 233.986 103.906 233.635 103.561L287.74 48.5866ZM48.5866 50.5005C49.2191 49.8577 49.8567 49.219 50.5005 48.5866L104.606 103.561C104.254 103.906 103.905 104.255 103.56 104.606L48.5866 50.5005ZM294.305 55.4174C294.912 56.0849 295.512 56.7575 296.109 57.4352L238.205 108.392C237.88 108.022 237.551 107.655 237.219 107.291L294.305 55.4174ZM42.1311 57.4352C42.7276 56.7575 43.3292 56.0849 43.936 55.4174L101.02 107.291C100.689 107.655 100.361 108.022 100.035 108.392L42.1311 57.4352ZM300.479 62.6052C301.047 63.3056 301.61 64.0111 302.168 64.7207L241.511 112.368C241.208 111.98 240.9 111.596 240.59 111.213L300.479 62.6052ZM36.0725 64.7207C36.63 64.0111 37.1935 63.3056 37.7623 62.6052L97.6502 111.213C97.3406 111.596 97.0331 111.98 96.7287 112.368L36.0725 64.7207ZM306.243 70.1272C306.773 70.8594 307.295 71.5948 307.812 72.3352L244.589 116.519C244.307 116.116 244.021 115.715 243.734 115.316L306.243 70.1272ZM30.4275 72.3352C30.9448 71.5948 31.4682 70.8594 31.9969 70.1272L94.5073 115.316C94.2183 115.715 93.9334 116.116 93.6516 116.519L30.4275 72.3352ZM311.582 77.9639C312.069 78.7249 312.55 79.4901 313.025 80.2583L247.427 120.832C247.168 120.415 246.906 119.998 246.641 119.584L311.582 77.9639ZM25.2143 80.2583C25.6905 79.4901 26.1718 78.7249 26.6593 77.9639L91.5999 119.585C91.3346 119.998 91.0723 120.415 90.8132 120.832L25.2143 80.2583ZM316.475 86.0926C316.919 86.8804 317.357 87.6713 317.789 88.4673L250.016 125.295C249.782 124.863 249.543 124.433 249.301 124.004L316.475 86.0926ZM20.4506 88.4673C20.8825 87.6713 21.3217 86.8804 21.766 86.0926L88.9383 124.004C88.6966 124.433 88.4591 124.863 88.2236 125.295L20.4506 88.4673ZM320.906 94.4888C321.305 95.2992 321.699 96.1137 322.086 96.9323L252.348 129.888C252.138 129.444 251.925 129.002 251.708 128.563L320.906 94.4888ZM16.1548 96.9323C16.5415 96.1137 16.9344 95.2992 17.3334 94.4888L86.5318 128.563C86.3158 129.002 86.1029 129.444 85.8931 129.889L16.1548 96.9323ZM324.861 103.126C325.213 103.958 325.56 104.793 325.899 105.631L254.415 134.602C254.231 134.147 254.043 133.695 253.852 133.244L324.861 103.126ZM12.3403 105.631C12.6808 104.793 13.0263 103.958 13.3791 103.126L84.3885 133.245C84.1972 133.695 84.0101 134.147 83.826 134.602L12.3403 105.631ZM328.322 111.973C328.628 112.824 328.926 113.677 329.218 114.534L256.211 139.421C256.053 138.957 255.892 138.496 255.726 138.035L328.322 111.973ZM9.02159 114.534C9.31366 113.677 9.61291 112.824 9.91733 111.973L82.5147 138.035C82.3491 138.496 82.1877 138.957 82.0293 139.421L9.02159 114.534ZM331.279 121.004C331.536 121.87 331.786 122.74 332.029 123.612L257.732 144.333C257.6 143.861 257.465 143.391 257.326 142.922L331.279 121.004ZM6.21087 123.612C6.45461 122.74 6.7045 121.87 6.96161 121.004L80.9145 142.922C80.7756 143.391 80.6399 143.861 80.5082 144.333L6.21087 123.612ZM333.721 130.186C333.928 131.066 334.129 131.95 334.322 132.834L258.973 149.326C258.868 148.847 258.76 148.369 258.647 147.891L333.721 130.186ZM3.91744 132.835C4.11182 131.95 4.31236 131.066 4.52011 130.186L79.5929 147.891C79.4808 148.369 79.3718 148.847 79.2669 149.326L3.91744 132.835ZM335.639 139.488C335.797 140.379 335.947 141.271 336.091 142.167L259.932 154.387C259.854 153.902 259.773 153.416 259.687 152.933L335.639 139.488ZM2.14957 142.167C2.29252 141.272 2.44369 140.379 2.60105 139.488L78.5532 152.933C78.4678 153.416 78.3855 153.902 78.3084 154.387L2.14957 142.167ZM337.03 148.876C337.137 149.773 337.238 150.673 337.33 151.575L260.607 159.506C260.556 159.014 260.501 158.523 260.443 158.035L337.03 148.876ZM0.909278 151.575C1.00287 150.673 1.10262 149.773 1.21061 148.876L77.7973 158.035C77.7387 158.523 77.6841 159.014 77.6338 159.506L0.909278 151.575ZM337.892 158.313C337.949 159.213 337.999 160.114 338.041 161.018L260.995 164.666C260.971 164.172 260.944 163.677 260.914 163.184L337.892 158.313ZM0.198618 161.018C0.241813 160.115 0.291174 159.213 0.348766 158.313L77.3273 163.185C77.2964 163.678 77.2686 164.172 77.245 164.666L0.198618 161.018ZM338.227 167.765C338.231 168.216 338.234 168.669 338.234 169.12C338.234 169.573 338.231 170.024 338.227 170.476L261.098 169.868C261.1 169.619 261.101 169.37 261.101 169.12C261.101 168.872 261.1 168.623 261.098 168.374L338.227 167.765ZM0.00732422 169.12C0.00732422 168.669 0.00938611 168.216 0.0124714 167.765L77.1432 168.374C77.1411 168.623 77.1401 168.872 77.1401 169.12C77.1401 169.37 77.1411 169.619 77.1432 169.868L0.0124714 170.476C0.00938611 170.024 0.00732422 169.573 0.00732422 169.12ZM338.041 177.222C337.999 178.126 337.949 179.028 337.892 179.928L260.914 175.057C260.944 174.564 260.971 174.07 260.995 173.575L338.041 177.222ZM0.348766 179.928C0.291174 179.028 0.241813 178.126 0.198618 177.223L77.245 173.575C77.2686 174.07 77.2964 174.564 77.3273 175.057L0.348766 179.928ZM337.33 186.666C337.238 187.567 337.137 188.467 337.03 189.366L260.443 180.207C260.501 179.717 260.556 179.227 260.607 178.735L337.33 186.666ZM1.21061 189.366C1.10262 188.468 1.00287 187.567 0.909278 186.666L77.6338 178.735C77.6841 179.228 77.7387 179.717 77.7973 180.207L1.21061 189.366ZM336.091 196.074C335.947 196.969 335.797 197.862 335.639 198.753L259.687 185.308C259.773 184.825 259.854 184.34 259.932 183.854L336.091 196.074ZM2.60105 198.754C2.44369 197.862 2.29252 196.969 2.14957 196.074L78.3084 183.854C78.3855 184.34 78.4678 184.825 78.5532 185.308L2.60105 198.754ZM334.322 205.407C334.129 206.292 333.928 207.175 333.721 208.055L258.647 190.349C258.76 189.873 258.868 189.395 258.974 188.915L334.322 205.407ZM4.52011 208.055C4.31236 207.175 4.11182 206.292 3.91744 205.407L79.2669 188.915C79.3718 189.395 79.4808 189.873 79.5929 190.349L4.52011 208.055ZM332.029 214.629C331.786 215.501 331.536 216.371 331.279 217.238L257.326 195.32C257.465 194.851 257.6 194.38 257.732 193.908L332.029 214.629ZM6.96161 217.238C6.7045 216.371 6.45461 215.501 6.21087 214.629L80.5082 193.908C80.6399 194.38 80.7756 194.851 80.9145 195.32L6.96161 217.238ZM329.218 223.708C328.926 224.563 328.628 225.417 328.322 226.268L255.726 200.206C255.892 199.746 256.053 199.283 256.211 198.821L329.218 223.708ZM9.91836 226.268C9.61292 225.418 9.31366 224.564 9.02159 223.708L82.0293 198.821C82.1877 199.283 82.3491 199.746 82.5147 200.206L9.91836 226.268ZM325.899 232.611C325.56 233.449 325.213 234.284 324.861 235.115L253.852 204.996C254.043 204.546 254.231 204.093 254.415 203.64L325.899 232.611ZM13.3791 235.115C13.0263 234.284 12.6808 233.449 12.3403 232.611L83.826 203.64C84.0101 204.093 84.1972 204.546 84.3885 204.996L13.3791 235.115ZM322.086 241.308C321.699 242.127 321.305 242.942 320.906 243.753L251.708 209.679C251.925 209.239 252.138 208.796 252.348 208.353L322.086 241.308ZM17.3344 243.753C16.9344 242.942 16.5415 242.127 16.1548 241.308L85.8931 208.353C86.1029 208.796 86.3158 209.239 86.5318 209.679L17.3344 243.753ZM317.789 249.775C317.357 250.569 316.919 251.361 316.475 252.149L249.301 214.237C249.543 213.809 249.782 213.379 250.016 212.947L317.789 249.775ZM21.766 252.149C21.3217 251.361 20.8825 250.569 20.4506 249.775L88.2236 212.947C88.4591 213.379 88.6966 213.809 88.9383 214.237L21.766 252.149ZM313.025 257.982C312.55 258.752 312.069 259.516 311.582 260.277L246.641 218.657C246.906 218.243 247.168 217.827 247.427 217.409L313.025 257.982ZM26.6593 260.277C26.1718 259.516 25.6905 258.752 25.2143 257.982L90.8132 217.409C91.0723 217.827 91.3346 218.243 91.5999 218.657L26.6593 260.277ZM31.9969 268.114C31.4682 267.382 30.9448 266.646 30.4275 265.906L93.6516 221.722C93.9334 222.125 94.2183 222.526 94.5073 222.925L31.9969 268.114ZM307.812 265.906C307.295 266.646 306.773 267.382 306.243 268.114L243.734 222.925C244.021 222.526 244.307 222.125 244.589 221.722L307.812 265.906ZM302.168 273.521C301.61 274.231 301.047 274.936 300.479 275.637L240.59 227.028C240.9 226.645 241.208 226.26 241.511 225.874L302.168 273.521ZM37.7623 275.637C37.1935 274.936 36.63 274.231 36.0725 273.521L96.7287 225.874C97.0331 226.26 97.3406 226.645 97.6502 227.028L37.7623 275.637ZM296.109 280.806C295.512 281.483 294.912 282.156 294.305 282.823L237.219 230.951C237.551 230.586 237.88 230.219 238.205 229.85L296.109 280.806ZM43.936 282.823C43.3292 282.156 42.7276 281.483 42.1311 280.806L100.035 229.85C100.361 230.219 100.689 230.586 101.02 230.951L43.936 282.823ZM289.654 287.74C289.022 288.384 288.383 289.022 287.74 289.654L233.635 234.681C233.986 234.336 234.335 233.987 234.68 233.635L289.654 287.74ZM50.5005 289.654C49.8567 289.022 49.2191 288.384 48.5866 287.74L103.56 233.635C103.905 233.987 104.254 234.336 104.606 234.681L50.5005 289.654ZM282.823 294.305C282.156 294.912 281.483 295.513 280.806 296.11L229.849 238.206C230.219 237.88 230.586 237.552 230.95 237.22L282.823 294.305ZM57.4352 296.11C56.7575 295.513 56.0849 294.912 55.4174 294.305L107.29 237.22C107.655 237.552 108.022 237.88 108.391 238.206L57.4352 296.11ZM275.636 300.478C274.935 301.047 274.23 301.611 273.52 302.168L225.873 241.512C226.26 241.208 226.645 240.9 227.028 240.591L275.636 300.478ZM64.7197 302.168C64.01 301.611 63.3045 301.047 62.6042 300.478L111.213 240.591C111.596 240.9 111.98 241.208 112.367 241.512L64.7197 302.168ZM72.3352 307.813C71.5948 307.296 70.8584 306.773 70.1272 306.244L115.316 243.733C115.715 244.022 116.116 244.307 116.519 244.589L72.3352 307.813ZM268.114 306.244C267.381 306.773 266.646 307.296 265.906 307.813L221.722 244.589C222.125 244.307 222.526 244.022 222.925 243.733L268.114 306.244ZM260.277 311.582C259.516 312.069 258.751 312.55 257.982 313.026L217.409 247.428C217.826 247.168 218.243 246.906 218.657 246.641L260.277 311.582ZM80.2583 313.026C79.4891 312.55 78.7249 312.069 77.9639 311.582L119.584 246.641C119.998 246.906 120.414 247.168 120.832 247.428L80.2583 313.026ZM252.148 316.475C251.36 316.919 250.57 317.358 249.773 317.79L212.946 250.016C213.378 249.782 213.808 249.544 214.237 249.302L252.148 316.475ZM88.4663 317.79C87.6713 317.358 86.8794 316.919 86.0916 316.475L124.004 249.302C124.432 249.544 124.862 249.782 125.294 250.017L88.4663 317.79ZM243.752 320.906C242.942 321.306 242.127 321.699 241.308 322.086L208.353 252.348C208.796 252.138 209.239 251.925 209.678 251.709L243.752 320.906ZM96.9324 322.086C96.1137 321.699 95.2992 321.306 94.4878 320.906L128.562 251.709C129.002 251.925 129.444 252.138 129.888 252.348L96.9324 322.086ZM235.115 324.862C234.283 325.214 233.448 325.56 232.61 325.9L203.639 254.415C204.093 254.231 204.546 254.044 204.995 253.852L235.115 324.862ZM105.63 325.9C104.792 325.56 103.957 325.214 103.126 324.862L133.244 253.852C133.695 254.044 134.147 254.231 134.601 254.415L105.63 325.9ZM226.268 328.322C225.417 328.628 224.563 328.927 223.707 329.219L198.82 256.212C199.283 256.053 199.745 255.892 200.206 255.726L226.268 328.322ZM114.533 329.219C113.677 328.927 112.824 328.628 111.973 328.323L138.035 255.726C138.495 255.892 138.957 256.053 139.42 256.212L114.533 329.219ZM217.237 331.279C216.371 331.536 215.501 331.786 214.629 332.03L193.908 257.733C194.38 257.601 194.85 257.465 195.319 257.326L217.237 331.279ZM123.612 332.03C122.74 331.786 121.87 331.536 121.003 331.279L142.921 257.326C143.39 257.465 143.861 257.601 144.333 257.733L123.612 332.03ZM208.055 333.721C207.175 333.928 206.291 334.129 205.407 334.323L188.915 258.974C189.394 258.869 189.872 258.76 190.349 258.648L208.055 333.721ZM132.834 334.323C131.949 334.129 131.066 333.928 130.186 333.721L147.891 258.648C148.368 258.76 148.846 258.869 149.326 258.974L132.834 334.323ZM142.167 336.091C141.271 335.948 140.379 335.797 139.488 335.64L152.933 259.688C153.416 259.773 153.901 259.855 154.387 259.932L142.167 336.091ZM198.753 335.64C197.862 335.797 196.969 335.948 196.074 336.091L183.854 259.932C184.339 259.855 184.825 259.773 185.308 259.688L198.753 335.64ZM151.575 337.331C150.673 337.238 149.773 337.138 148.875 337.03L158.034 260.444C158.523 260.502 159.014 260.557 159.506 260.607L151.575 337.331ZM189.365 337.03C188.467 337.138 187.567 337.238 186.666 337.331L178.735 260.607C179.227 260.557 179.717 260.502 180.206 260.444L189.365 337.03ZM161.018 338.042C160.114 337.999 159.212 337.95 158.313 337.892L163.184 260.913C163.677 260.944 164.171 260.972 164.666 260.996L161.018 338.042ZM179.928 337.892C179.027 337.95 178.126 337.999 177.222 338.042L173.575 260.996C174.069 260.972 174.564 260.944 175.056 260.913L179.928 337.892ZM169.12 338.233C168.668 338.233 168.216 338.231 167.765 338.228L168.373 261.098C168.622 261.1 168.871 261.101 169.12 261.101C169.369 261.101 169.618 261.1 169.867 261.098L170.476 338.228C170.22 338.23 169.965 338.231 169.709 338.232C169.513 338.233 169.317 338.233 169.12 338.233Z" fill="url(#paint1_linear_47_200)"/>
<defs>
<linearGradient id="paint0_linear_47_200" x1="306.429" y1="-162.381" x2="109.388" y2="300.757" gradientUnits="userSpaceOnUse">
<stop stop-color="white" stop-opacity="0.8"/>
<stop offset="1" stop-color="white" stop-opacity="0"/>
</linearGradient>
<linearGradient id="paint1_linear_47_200" x1="169.13" y1="36.8817" x2="53.4173" y2="251.065" gradientUnits="userSpaceOnUse">
<stop stop-color="#265E6D"/>
<stop offset="1" stop-color="#7AE7C7"/>
</linearGradient>
</defs>
</svg>
