<svg width="139" height="108" viewBox="0 0 139 108" fill="none" xmlns="http://www.w3.org/2000/svg">
<path d="M135.27 1.63957C135.27 2.54507 136.006 3.27913 136.914 3.27913C137.822 3.27913 138.558 2.54507 138.558 1.63957C138.558 0.734059 137.822 3.96919e-08 136.914 0C136.006 -3.96915e-08 135.27 0.734059 135.27 1.63957Z" fill="#7AE7C7"/>
<path d="M136.914 20.7044C136.004 20.7044 135.27 19.9727 135.27 19.0649C135.27 18.157 136.004 17.4253 136.914 17.4253C137.825 17.4253 138.558 18.157 138.558 19.0649C138.558 19.9727 137.825 20.7044 136.914 20.7044Z" fill="#7AE7C7"/>
<path d="M136.914 38.1165C136.004 38.1165 135.27 37.3848 135.27 36.477C135.27 35.5691 136.004 34.8374 136.914 34.8374C137.825 34.8374 138.558 35.5691 138.558 36.477C138.558 37.3848 137.825 38.1165 136.914 38.1165Z" fill="#7AE7C7"/>
<path d="M135.27 53.8891C135.27 54.7946 136.006 55.5286 136.914 55.5286C137.822 55.5286 138.558 54.7946 138.558 53.8891C138.558 52.9836 137.822 52.2495 136.914 52.2495C136.006 52.2495 135.27 52.9836 135.27 53.8891Z" fill="#7AE7C7"/>
<path d="M135.27 71.3007C135.27 72.2062 136.006 72.9403 136.914 72.9403C137.822 72.9403 138.558 72.2062 138.558 71.3007C138.558 70.3952 137.822 69.6611 136.914 69.6611C136.006 69.6611 135.27 70.3952 135.27 71.3007Z" fill="white"/>
<path d="M136.914 90.3661C136.004 90.3661 135.27 89.6343 135.27 88.7265C135.27 87.8186 136.004 87.0869 136.914 87.0869C137.825 87.0869 138.558 87.8186 138.558 88.7265C138.558 89.6343 137.825 90.3661 136.914 90.3661Z" fill="#7AE7C7"/>
<path d="M135.27 106.138C135.27 107.044 136.006 107.778 136.914 107.778C137.822 107.778 138.558 107.044 138.558 106.138C138.558 105.233 137.822 104.499 136.914 104.499C136.006 104.499 135.27 105.233 135.27 106.138Z" fill="#7AE7C7"/>
<path d="M117.592 3.2928C116.681 3.2928 115.948 2.5611 115.948 1.65324C115.948 0.745379 116.681 0.0136719 117.592 0.0136719C118.502 0.0136719 119.236 0.745379 119.236 1.65324C119.236 2.5611 118.502 3.2928 117.592 3.2928Z" fill="white"/>
<path d="M117.592 20.7044C116.681 20.7044 115.948 19.9727 115.948 19.0649C115.948 18.157 116.681 17.4253 117.592 17.4253C118.502 17.4253 119.236 18.157 119.236 19.0649C119.236 19.9727 118.502 20.7044 117.592 20.7044Z" fill="#7AE7C7"/>
<path d="M117.592 38.1165C116.681 38.1165 115.948 37.3848 115.948 36.477C115.948 35.5691 116.681 34.8374 117.592 34.8374C118.502 34.8374 119.236 35.5691 119.236 36.477C119.236 37.3848 118.502 38.1165 117.592 38.1165Z" fill="#7AE7C7"/>
<path d="M117.592 55.5286C116.681 55.5286 115.948 54.7969 115.948 53.8891C115.948 52.9812 116.681 52.2495 117.592 52.2495C118.502 52.2495 119.236 52.9812 119.236 53.8891C119.236 54.7969 118.502 55.5286 117.592 55.5286Z" fill="#7AE7C7"/>
<path d="M117.592 72.9403C116.681 72.9403 115.948 72.2086 115.948 71.3007C115.948 70.3928 116.681 69.6611 117.592 69.6611C118.502 69.6611 119.236 70.3928 119.236 71.3007C119.236 72.2086 118.502 72.9403 117.592 72.9403Z" fill="#7AE7C7"/>
<path d="M117.592 90.3661C116.681 90.3661 115.948 89.6343 115.948 88.7265C115.948 87.8186 116.681 87.0869 117.592 87.0869C118.502 87.0869 119.236 87.8186 119.236 88.7265C119.236 89.6343 118.502 90.3661 117.592 90.3661Z" fill="#7AE7C7"/>
<path d="M117.592 107.778C116.681 107.778 115.948 107.046 115.948 106.138C115.948 105.23 116.681 104.499 117.592 104.499C118.502 104.499 119.236 105.23 119.236 106.138C119.236 107.046 118.502 107.778 117.592 107.778Z" fill="#7AE7C7"/>
<path d="M96.6121 1.63957C96.6121 2.54507 97.348 3.27913 98.256 3.27913C99.164 3.27913 99.9001 2.54507 99.9001 1.63957C99.9001 0.734059 99.164 3.96918e-08 98.256 0C97.348 -3.96916e-08 96.6121 0.734059 96.6121 1.63957Z" fill="#7AE7C7"/>
<path d="M98.256 20.7044C97.346 20.7044 96.6121 19.9727 96.6121 19.0649C96.6121 18.157 97.346 17.4253 98.256 17.4253C99.166 17.4253 99.9001 18.157 99.9001 19.0649C99.9001 19.9727 99.166 20.7044 98.256 20.7044Z" fill="#7AE7C7"/>
<path d="M98.256 38.1165C97.346 38.1165 96.6121 37.3848 96.6121 36.477C96.6121 35.5691 97.346 34.8374 98.256 34.8374C99.166 34.8374 99.9001 35.5691 99.9001 36.477C99.9001 37.3848 99.166 38.1165 98.256 38.1165Z" fill="white"/>
<path d="M96.6121 53.8891C96.6121 54.7946 97.348 55.5286 98.256 55.5286C99.164 55.5286 99.9001 54.7946 99.9001 53.8891C99.9001 52.9836 99.164 52.2495 98.256 52.2495C97.348 52.2495 96.6121 52.9836 96.6121 53.8891Z" fill="#7AE7C7"/>
<path d="M96.6121 71.3007C96.6121 72.2062 97.348 72.9403 98.256 72.9403C99.164 72.9403 99.9001 72.2062 99.9001 71.3007C99.9001 70.3952 99.164 69.6611 98.256 69.6611C97.348 69.6611 96.6121 70.3952 96.6121 71.3007Z" fill="#7AE7C7"/>
<path d="M98.256 90.3661C97.346 90.3661 96.6121 89.6343 96.6121 88.7265C96.6121 87.8186 97.346 87.0869 98.256 87.0869C99.166 87.0869 99.9001 87.8186 99.9001 88.7265C99.9001 89.6343 99.166 90.3661 98.256 90.3661Z" fill="#7AE7C7"/>
<path d="M96.6121 106.138C96.6121 107.044 97.348 107.778 98.256 107.778C99.164 107.778 99.9001 107.044 99.9001 106.138C99.9001 105.233 99.164 104.499 98.256 104.499C97.348 104.499 96.6121 105.233 96.6121 106.138Z" fill="#7AE7C7"/>
<path d="M78.9341 3.2928C78.0231 3.2928 77.2891 2.5611 77.2891 1.65324C77.2891 0.745379 78.0231 0.0136719 78.9341 0.0136719C79.8441 0.0136719 80.5781 0.745379 80.5781 1.65324C80.5781 2.5611 79.8441 3.2928 78.9341 3.2928Z" fill="#7AE7C7"/>
<path d="M78.9341 20.7044C78.0231 20.7044 77.2891 19.9727 77.2891 19.0649C77.2891 18.157 78.0231 17.4253 78.9341 17.4253C79.8441 17.4253 80.5781 18.157 80.5781 19.0649C80.5781 19.9727 79.8441 20.7044 78.9341 20.7044Z" fill="#7AE7C7"/>
<path d="M78.9341 38.1165C78.0231 38.1165 77.2891 37.3848 77.2891 36.477C77.2891 35.5691 78.0231 34.8374 78.9341 34.8374C79.8441 34.8374 80.5781 35.5691 80.5781 36.477C80.5781 37.3848 79.8441 38.1165 78.9341 38.1165Z" fill="#7AE7C7"/>
<path d="M78.9341 55.5286C78.0231 55.5286 77.2891 54.7969 77.2891 53.8891C77.2891 52.9812 78.0231 52.2495 78.9341 52.2495C79.8441 52.2495 80.5781 52.9812 80.5781 53.8891C80.5781 54.7969 79.8441 55.5286 78.9341 55.5286Z" fill="#7AE7C7"/>
<path d="M78.9341 72.9403C78.0231 72.9403 77.2891 72.2086 77.2891 71.3007C77.2891 70.3928 78.0231 69.6611 78.9341 69.6611C79.8441 69.6611 80.5781 70.3928 80.5781 71.3007C80.5781 72.2086 79.8441 72.9403 78.9341 72.9403Z" fill="white"/>
<path d="M78.9341 90.3661C78.0231 90.3661 77.2891 89.6343 77.2891 88.7265C77.2891 87.8186 78.0231 87.0869 78.9341 87.0869C79.8441 87.0869 80.5781 87.8186 80.5781 88.7265C80.5781 89.6343 79.8441 90.3661 78.9341 90.3661Z" fill="#7AE7C7"/>
<path d="M78.9341 107.778C78.0231 107.778 77.2891 107.046 77.2891 106.138C77.2891 105.23 78.0231 104.499 78.9341 104.499C79.8441 104.499 80.5781 105.23 80.5781 106.138C80.5781 107.046 79.8441 107.778 78.9341 107.778Z" fill="#7AE7C7"/>
<path d="M57.967 1.63957C57.967 2.54507 58.703 3.27913 59.611 3.27913C60.519 3.27913 61.256 2.54507 61.256 1.63957C61.256 0.734059 60.519 3.96919e-08 59.611 0C58.703 -3.96915e-08 57.967 0.734059 57.967 1.63957Z" fill="#7AE7C7"/>
<path d="M59.611 20.7044C58.701 20.7044 57.967 19.9727 57.967 19.0649C57.967 18.157 58.701 17.4253 59.611 17.4253C60.522 17.4253 61.256 18.157 61.256 19.0649C61.256 19.9727 60.522 20.7044 59.611 20.7044Z" fill="#7AE7C7"/>
<path d="M59.611 38.1165C58.701 38.1165 57.967 37.3848 57.967 36.477C57.967 35.5691 58.701 34.8374 59.611 34.8374C60.522 34.8374 61.256 35.5691 61.256 36.477C61.256 37.3848 60.522 38.1165 59.611 38.1165Z" fill="#7AE7C7"/>
<path d="M57.967 53.8891C57.967 54.7946 58.703 55.5286 59.611 55.5286C60.519 55.5286 61.256 54.7946 61.256 53.8891C61.256 52.9836 60.519 52.2495 59.611 52.2495C58.703 52.2495 57.967 52.9836 57.967 53.8891Z" fill="#7AE7C7"/>
<path d="M57.967 71.3007C57.967 72.2062 58.703 72.9403 59.611 72.9403C60.519 72.9403 61.256 72.2062 61.256 71.3007C61.256 70.3952 60.519 69.6611 59.611 69.6611C58.703 69.6611 57.967 70.3952 57.967 71.3007Z" fill="#7AE7C7"/>
<path d="M59.611 90.3661C58.701 90.3661 57.967 89.6343 57.967 88.7265C57.967 87.8186 58.701 87.0869 59.611 87.0869C60.522 87.0869 61.256 87.8186 61.256 88.7265C61.256 89.6343 60.522 90.3661 59.611 90.3661Z" fill="#7AE7C7"/>
<path d="M57.967 106.138C57.967 107.044 58.703 107.778 59.611 107.778C60.519 107.778 61.256 107.044 61.256 106.138C61.256 105.233 60.519 104.499 59.611 104.499C58.703 104.499 57.967 105.233 57.967 106.138Z" fill="#7AE7C7"/>
<path d="M38.645 1.63957C38.645 2.54507 39.381 3.27913 40.289 3.27913C41.197 3.27913 41.933 2.54507 41.933 1.63957C41.933 0.734059 41.197 3.96917e-08 40.289 0C39.381 -3.96918e-08 38.645 0.734059 38.645 1.63957Z" fill="#7AE7C7"/>
<path d="M40.289 20.7044C39.379 20.7044 38.645 19.9727 38.645 19.0649C38.645 18.157 39.379 17.4253 40.289 17.4253C41.2 17.4253 41.933 18.157 41.933 19.0649C41.933 19.9727 41.2 20.7044 40.289 20.7044Z" fill="#7AE7C7"/>
<path d="M40.289 38.1165C39.379 38.1165 38.645 37.3848 38.645 36.477C38.645 35.5691 39.379 34.8374 40.289 34.8374C41.2 34.8374 41.933 35.5691 41.933 36.477C41.933 37.3848 41.2 38.1165 40.289 38.1165Z" fill="#7AE7C7"/>
<path d="M38.645 53.8891C38.645 54.7946 39.381 55.5286 40.289 55.5286C41.197 55.5286 41.933 54.7946 41.933 53.8891C41.933 52.9836 41.197 52.2495 40.289 52.2495C39.381 52.2495 38.645 52.9836 38.645 53.8891Z" fill="white"/>
<path d="M38.645 71.3007C38.645 72.2062 39.381 72.9403 40.289 72.9403C41.197 72.9403 41.933 72.2062 41.933 71.3007C41.933 70.3952 41.197 69.6611 40.289 69.6611C39.381 69.6611 38.645 70.3952 38.645 71.3007Z" fill="#7AE7C7"/>
<path d="M40.289 90.3661C39.379 90.3661 38.645 89.6343 38.645 88.7265C38.645 87.8186 39.379 87.0869 40.289 87.0869C41.2 87.0869 41.933 87.8186 41.933 88.7265C41.933 89.6343 41.2 90.3661 40.289 90.3661Z" fill="#7AE7C7"/>
<path d="M38.645 106.138C38.645 107.044 39.381 107.778 40.289 107.778C41.197 107.778 41.933 107.044 41.933 106.138C41.933 105.233 41.197 104.499 40.289 104.499C39.381 104.499 38.645 105.233 38.645 106.138Z" fill="#7AE7C7"/>
<path d="M20.9668 3.2928C20.0558 3.2928 19.3228 2.5611 19.3228 1.65324C19.3228 0.745379 20.0558 0.0136719 20.9668 0.0136719C21.8768 0.0136719 22.6107 0.745379 22.6107 1.65324C22.6107 2.5611 21.8768 3.2928 20.9668 3.2928Z" fill="#7AE7C7"/>
<path d="M20.9668 20.7044C20.0558 20.7044 19.3228 19.9727 19.3228 19.0649C19.3228 18.157 20.0558 17.4253 20.9668 17.4253C21.8768 17.4253 22.6107 18.157 22.6107 19.0649C22.6107 19.9727 21.8768 20.7044 20.9668 20.7044Z" fill="#7AE7C7"/>
<path d="M20.9668 38.1165C20.0558 38.1165 19.3228 37.3848 19.3228 36.477C19.3228 35.5691 20.0558 34.8374 20.9668 34.8374C21.8768 34.8374 22.6107 35.5691 22.6107 36.477C22.6107 37.3848 21.8768 38.1165 20.9668 38.1165Z" fill="#7AE7C7"/>
<path d="M20.9668 55.5286C20.0558 55.5286 19.3228 54.7969 19.3228 53.8891C19.3228 52.9812 20.0558 52.2495 20.9668 52.2495C21.8768 52.2495 22.6107 52.9812 22.6107 53.8891C22.6107 54.7969 21.8768 55.5286 20.9668 55.5286Z" fill="#7AE7C7"/>
<path d="M20.9668 72.9403C20.0558 72.9403 19.3228 72.2086 19.3228 71.3007C19.3228 70.3928 20.0558 69.6611 20.9668 69.6611C21.8768 69.6611 22.6107 70.3928 22.6107 71.3007C22.6107 72.2086 21.8768 72.9403 20.9668 72.9403Z" fill="#7AE7C7"/>
<path d="M20.9668 90.3661C20.0558 90.3661 19.3228 89.6343 19.3228 88.7265C19.3228 87.8186 20.0558 87.0869 20.9668 87.0869C21.8768 87.0869 22.6107 87.8186 22.6107 88.7265C22.6107 89.6343 21.8768 90.3661 20.9668 90.3661Z" fill="white"/>
<path d="M20.9668 107.778C20.0558 107.778 19.3228 107.046 19.3228 106.138C19.3228 105.23 20.0558 104.499 20.9668 104.499C21.8768 104.499 22.6107 105.23 22.6107 106.138C22.6107 107.046 21.8768 107.778 20.9668 107.778Z" fill="#7AE7C7"/>
<path d="M0 1.63957C0 2.54507 0.736989 3.27913 1.64499 3.27913C2.55299 3.27913 3.289 2.54507 3.289 1.63957C3.289 0.734059 2.55299 3.96917e-08 1.64499 0C0.736989 -3.96919e-08 0 0.734059 0 1.63957Z" fill="#7AE7C7"/>
<path d="M1.64499 20.7044C0.733989 20.7044 0 19.9727 0 19.0649C0 18.157 0.733989 17.4253 1.64499 17.4253C2.55499 17.4253 3.289 18.157 3.289 19.0649C3.289 19.9727 2.55499 20.7044 1.64499 20.7044Z" fill="white"/>
<path d="M1.64499 38.1165C0.733989 38.1165 0 37.3848 0 36.477C0 35.5691 0.733989 34.8374 1.64499 34.8374C2.55499 34.8374 3.289 35.5691 3.289 36.477C3.289 37.3848 2.55499 38.1165 1.64499 38.1165Z" fill="#7AE7C7"/>
<path d="M0 53.8891C0 54.7946 0.736989 55.5286 1.64499 55.5286C2.55299 55.5286 3.289 54.7946 3.289 53.8891C3.289 52.9836 2.55299 52.2495 1.64499 52.2495C0.736989 52.2495 0 52.9836 0 53.8891Z" fill="#7AE7C7"/>
<path d="M0 71.3007C0 72.2062 0.736989 72.9403 1.64499 72.9403C2.55299 72.9403 3.289 72.2062 3.289 71.3007C3.289 70.3952 2.55299 69.6611 1.64499 69.6611C0.736989 69.6611 0 70.3952 0 71.3007Z" fill="#7AE7C7"/>
<path d="M1.64499 90.3661C0.733989 90.3661 0 89.6343 0 88.7265C0 87.8186 0.733989 87.0869 1.64499 87.0869C2.55499 87.0869 3.289 87.8186 3.289 88.7265C3.289 89.6343 2.55499 90.3661 1.64499 90.3661Z" fill="#7AE7C7"/>
<path d="M0 106.138C0 107.044 0.736989 107.778 1.64499 107.778C2.55299 107.778 3.289 107.044 3.289 106.138C3.289 105.233 2.55299 104.499 1.64499 104.499C0.736989 104.499 0 105.233 0 106.138Z" fill="#7AE7C7"/>
</svg>
