<svg width="196" height="456" viewBox="0 0 196 456" fill="none" xmlns="http://www.w3.org/2000/svg">
<path fill-rule="evenodd" clip-rule="evenodd" d="M226.841 0.00596929C227.399 0.00203521 227.956 0 228.5 0C229.057 0 229.601 0.00203521 230.159 0.00596929L229.56 84.1117C229.207 84.1092 228.853 84.1079 228.5 84.1079C228.146 84.1079 227.793 84.1092 227.453 84.1117L226.841 0.00596929ZM238.397 0.210949C239.499 0.257886 240.6 0.312557 241.701 0.375095L236.888 84.3462C236.195 84.3065 235.502 84.2718 234.795 84.2421L238.397 0.210949ZM215.312 0.375095C216.4 0.312557 217.501 0.257886 218.603 0.210949L222.205 84.2421C221.498 84.2718 220.805 84.3065 220.112 84.3462L215.312 0.375095ZM249.94 0.99261C251.028 1.09476 252.129 1.20478 253.217 1.32239L244.189 84.9457C243.496 84.8714 242.802 84.8019 242.109 84.7373L249.94 0.99261ZM203.783 1.32239C204.871 1.20478 205.972 1.09489 207.074 0.992744L214.891 84.7373C214.198 84.8019 213.504 84.8714 212.811 84.9457L203.783 1.32239ZM261.428 2.35516C262.516 2.51266 263.617 2.67802 264.705 2.85099L251.436 85.9105C250.742 85.8014 250.063 85.6971 249.369 85.5977L261.428 2.35516ZM192.309 2.85112C193.396 2.67802 194.484 2.51279 195.572 2.35516L207.631 85.5978C206.951 85.6971 206.258 85.8014 205.578 85.9105L192.309 2.85112ZM272.849 4.299C273.936 4.51198 275.01 4.73256 276.098 4.96074L258.6 87.2391C257.934 87.0955 257.241 86.9567 256.561 86.8225L272.849 4.299ZM180.916 4.96087C181.99 4.73256 183.077 4.51198 184.151 4.299L200.439 86.8225C199.759 86.9567 199.079 87.0956 198.4 87.2391L180.916 4.96087ZM284.16 6.82169C285.234 7.08962 286.308 7.36514 287.369 7.64825L265.697 88.9297C265.031 88.7517 264.351 88.5784 263.685 88.4099L284.16 6.82169ZM169.631 7.64825C170.705 7.36514 171.766 7.08962 172.84 6.82169L193.328 88.4099C192.649 88.5784 191.969 88.7517 191.303 88.9297L169.631 7.64825ZM295.336 9.91754C296.382 10.24 297.443 10.5698 298.49 10.9069L272.699 90.9786C272.033 90.7665 271.367 90.5592 270.7 90.3566L295.336 9.91754ZM158.51 10.907C159.557 10.5698 160.618 10.24 161.678 9.91768L186.3 90.3566C185.633 90.5592 184.967 90.7665 184.314 90.9786L158.51 10.907ZM306.334 13.5787C307.368 13.9546 308.401 14.3377 309.434 14.7281L279.578 93.3812C278.926 93.1356 278.273 92.8947 277.621 92.6584L306.334 13.5787ZM147.566 14.7281C148.599 14.3377 149.632 13.9546 150.679 13.5787L179.379 92.6584C178.727 92.8947 178.074 93.1358 177.422 93.3813L147.566 14.7281ZM317.129 17.7944C318.149 18.2225 319.155 18.658 320.175 19.1005L286.335 96.1321C285.696 95.8536 285.057 95.5795 284.418 95.3101L317.129 17.7944ZM136.839 19.1005C137.845 18.658 138.865 18.2227 139.884 17.7944L172.595 95.3101C171.956 95.5797 171.317 95.8536 170.678 96.1321L136.839 19.1005ZM327.693 22.5523C328.685 23.0316 329.678 23.5178 330.657 24.011L292.929 99.2241C292.317 98.9135 291.692 98.6071 291.067 98.3053L327.693 22.5523ZM126.343 24.011C127.336 23.5179 128.328 23.0316 129.321 22.5523L165.947 98.3053C165.322 98.6071 164.696 98.9135 164.071 99.2241L126.343 24.011ZM337.985 27.8388C338.964 28.3676 339.929 28.903 340.881 29.4452L299.373 102.649C298.775 102.307 298.163 101.97 297.552 101.636L337.985 27.8388ZM116.119 29.4454C117.085 28.9031 118.05 28.3676 119.015 27.8389L159.448 101.637C158.837 101.97 158.225 102.307 157.627 102.649L116.119 29.4454ZM348.005 33.6379C348.943 34.2145 349.881 34.7977 350.819 35.3874L305.641 106.399C305.056 106.027 304.472 105.658 303.874 105.295L348.005 33.6379ZM106.195 35.3874C107.119 34.7977 108.057 34.2145 108.995 33.6379L153.126 105.295C152.542 105.658 151.944 106.027 151.359 106.399L106.195 35.3874ZM357.712 39.9331C358.623 40.556 359.534 41.1853 360.431 41.8209L311.718 110.463C311.147 110.062 310.576 109.664 310.005 109.269L357.712 39.9331ZM96.5827 41.821C97.48 41.1853 98.3773 40.556 99.2882 39.9331L147.008 109.269C146.424 109.664 145.853 110.062 145.282 110.463L96.5827 41.821ZM367.079 46.707C367.963 47.3746 368.833 48.0484 369.703 48.7283L317.578 114.83C317.034 114.4 316.477 113.974 315.919 113.552L367.079 46.707ZM87.3104 48.7283C88.1669 48.0484 89.0371 47.3747 89.9208 46.7071L141.081 113.552C140.523 113.974 139.98 114.4 139.422 114.83L87.3104 48.7283ZM376.093 53.9419C376.936 54.6525 377.779 55.3689 378.608 56.0913L323.206 119.488C322.69 119.031 322.159 118.578 321.629 118.128L376.093 53.9419ZM78.4055 56.0914C79.2348 55.369 80.0641 54.6525 80.907 53.9421L135.384 118.128C134.84 118.578 134.324 119.031 133.794 119.488L78.4055 56.0914ZM384.74 61.6193C385.542 62.371 386.331 63.1284 387.133 63.8916L328.604 124.425C328.101 123.942 327.598 123.462 327.095 122.987L384.74 61.6193ZM69.881 63.8916C70.6696 63.1285 71.4717 62.371 72.2739 61.6193L129.919 122.987C129.402 123.462 128.899 123.942 128.396 124.425L69.881 63.8916ZM392.965 69.72C393.74 70.5112 394.488 71.3078 395.249 72.1098L333.743 129.626C333.267 129.119 332.791 128.615 332.302 128.114L392.965 69.72ZM61.7509 72.1098C62.5123 71.3078 63.2735 70.5112 64.0349 69.7202L124.698 128.114C124.222 128.615 123.733 129.119 123.257 129.626L61.7509 72.1098ZM400.782 78.2245C401.517 79.0531 402.224 79.887 402.944 80.7261L338.61 135.08C338.162 134.549 337.713 134.021 337.251 133.496L400.782 78.2245ZM54.0694 80.7261C54.7764 79.887 55.4969 79.0533 56.2175 78.2247L119.749 133.496C119.301 134.021 118.838 134.549 118.39 135.08L54.0694 80.7261ZM408.165 87.1126C408.845 87.9767 409.525 88.8459 410.191 89.7201L343.206 140.769C342.784 140.216 342.349 139.666 341.914 139.119L408.165 87.1126ZM46.8095 89.7202C47.4756 88.846 48.1554 87.9767 48.8352 87.1127L115.086 139.119C114.651 139.666 114.23 140.216 113.808 140.769L46.8095 89.7202ZM415.085 96.3631C415.724 97.2607 416.363 98.1631 416.975 99.0704L347.488 146.678C347.094 146.106 346.699 145.535 346.292 144.968L415.085 96.3631ZM40.0253 99.0705C40.6507 98.1633 41.276 97.2607 41.9149 96.3631L110.708 144.968C110.301 145.535 109.906 146.106 109.512 146.678L40.0253 99.0705ZM421.543 105.954C422.127 106.883 422.712 107.816 423.297 108.755L351.472 152.794C351.118 152.202 350.737 151.612 350.37 151.026L421.543 105.954ZM33.717 108.755C34.288 107.816 34.8725 106.883 35.4707 105.954L106.63 151.026C106.263 151.612 105.896 152.202 105.528 152.794L33.717 108.755ZM427.498 115.862C428.042 116.82 428.572 117.783 429.102 118.75L355.142 159.099C354.802 158.49 354.476 157.882 354.123 157.279L427.498 115.862ZM27.898 118.75C28.4283 117.783 28.972 116.82 29.5158 115.862L102.877 157.279C102.538 157.882 102.198 158.49 101.858 159.099L27.898 118.75ZM432.936 126.064C433.439 127.049 433.915 128.038 434.404 129.032L358.487 165.578C358.174 164.953 357.875 164.329 357.562 163.709L432.936 126.064ZM22.6094 129.032C23.0852 128.038 23.5746 127.049 24.064 126.064L99.4377 163.709C99.1386 164.329 98.8258 164.953 98.5267 165.578L22.6094 129.032ZM437.857 136.532C438.306 137.542 438.741 138.555 439.163 139.571L361.478 172.213C361.22 171.573 360.934 170.935 360.662 170.3L437.857 136.532ZM17.8373 139.571C18.2588 138.555 18.7074 137.542 19.1424 136.532L96.3515 170.3C96.066 170.935 95.7941 171.573 95.5222 172.213L17.8373 139.571ZM442.235 147.241C442.629 148.271 443.01 149.306 443.391 150.342L364.142 178.988C363.898 178.335 363.667 177.686 363.422 177.037L442.235 147.241ZM13.6091 150.344C13.9898 149.306 14.3705 148.271 14.7647 147.241L93.5915 177.037C93.3468 177.686 93.1022 178.335 92.8711 178.988L13.6091 150.344ZM446.069 158.162C446.409 159.21 446.735 160.262 447.062 161.317L366.454 185.888C366.25 185.224 366.032 184.563 365.828 183.904L446.069 158.162ZM9.93841 161.317C10.2647 160.262 10.591 159.21 10.9309 158.162L91.1851 183.904C90.9676 184.563 90.7637 185.224 90.5598 185.888L9.93841 161.317ZM449.332 169.263C449.618 170.326 449.903 171.394 450.161 172.464L368.398 192.897C368.235 192.224 368.058 191.553 367.881 190.884L449.332 169.263ZM6.83859 172.464C7.1105 171.394 7.38239 170.328 7.6679 169.263L89.1323 190.884C88.9556 191.553 88.7788 192.224 88.6021 192.897L6.83859 172.464ZM452.024 180.514C452.255 181.59 452.486 182.67 452.69 183.751L369.989 199.999C369.853 199.318 369.717 198.638 369.567 197.961L452.024 180.514ZM4.30984 183.751C4.52737 182.67 4.74488 181.59 4.97601 180.514L87.4329 197.961C87.2834 198.639 87.1473 199.318 87.0114 199.999L4.30984 183.751ZM454.145 191.882C454.322 192.967 454.485 194.055 454.648 195.145L371.212 207.179C371.117 206.491 371.008 205.805 370.899 205.121L454.145 191.882ZM2.36561 195.146C2.51516 194.055 2.69188 192.967 2.85503 191.882L86.1004 205.121C85.9916 205.806 85.8829 206.491 85.7877 207.179L2.36561 195.146ZM455.681 203.333C455.79 204.425 455.899 205.519 456.008 206.613L372.082 214.422C372.014 213.73 371.946 213.038 371.865 212.349L455.681 203.333ZM0.992447 206.613C1.10121 205.519 1.20998 204.425 1.33233 203.333L85.1352 212.349C85.0536 213.038 84.9856 213.73 84.9312 214.422L0.992447 206.613ZM456.619 214.833C456.687 215.928 456.742 217.024 456.796 218.121L372.572 221.715C372.544 221.017 372.518 220.322 372.477 219.628L456.619 214.833ZM0.217575 218.121C0.258361 217.024 0.312737 215.928 0.380715 214.833L84.537 219.628C84.4963 220.323 84.4554 221.017 84.4282 221.715L0.217575 218.121ZM457 226.347C457 226.898 457 227.449 457 228C457 228.551 457 229.101 457 229.652L372.708 229.052C372.708 228.702 372.708 228.351 372.708 228C372.708 227.791 372.708 227.582 372.708 227.373C372.708 227.231 372.708 227.088 372.708 226.947L457 226.347ZM0 228C0 227.449 1.32772e-05 226.898 0.0136088 226.347L84.2923 226.947C84.2923 227.297 84.2923 227.648 84.2923 228C84.2923 228.351 84.2923 228.702 84.2923 229.052L0.0136088 229.652C1.32772e-05 229.101 0 228.551 0 228ZM456.796 237.878C456.742 238.976 456.687 240.072 456.619 241.167L372.477 236.371C372.518 235.677 372.544 234.982 372.572 234.285L456.796 237.878ZM0.380715 241.167C0.312737 240.072 0.258361 238.976 0.217575 237.878L84.4282 234.285C84.4554 234.982 84.4963 235.678 84.537 236.371L0.380715 241.167ZM456.008 249.386C455.899 250.481 455.79 251.574 455.681 252.666L371.865 243.651C371.946 242.961 372.014 242.27 372.082 241.578L456.008 249.386ZM1.33233 252.666C1.20998 251.574 1.10121 250.481 0.992447 249.386L84.9312 241.578C84.9856 242.27 85.0536 242.961 85.1352 243.651L1.33233 252.666ZM454.648 260.853C454.485 261.944 454.322 263.032 454.145 264.117L370.899 250.878C371.008 250.195 371.117 249.508 371.212 248.821L454.648 260.853ZM2.85503 264.117C2.69188 263.032 2.51516 261.944 2.36561 260.855L85.7877 248.821C85.8829 249.508 85.9916 250.195 86.1004 250.878L2.85503 264.117ZM452.69 272.249C452.486 273.33 452.255 274.41 452.024 275.485L369.567 258.039C369.717 257.36 369.853 256.682 369.989 256.001L452.69 272.249ZM4.97601 275.485C4.74488 274.41 4.52737 273.33 4.30984 272.249L87.0114 256.001C87.1473 256.682 87.2834 257.362 87.4329 258.039L4.97601 275.485ZM450.161 283.535C449.903 284.606 449.618 285.672 449.332 286.737L367.881 265.116C368.058 264.447 368.235 263.775 368.398 263.103L450.161 283.535ZM7.6679 286.737C7.38239 285.673 7.1105 284.606 6.83859 283.535L88.6021 263.103C88.7788 263.775 88.9556 264.447 89.1323 265.116L7.6679 286.737ZM447.062 294.682C446.735 295.738 446.409 296.789 446.069 297.838L365.828 272.095C366.032 271.436 366.25 270.775 366.454 270.112L447.062 294.682ZM10.9309 297.838C10.591 296.789 10.2647 295.738 9.93841 294.682L90.5598 270.112C90.7637 270.775 90.9676 271.436 91.1851 272.095L10.9309 297.838ZM443.391 305.656C443.01 306.694 442.629 307.729 442.235 308.758L363.422 278.962C363.667 278.314 363.898 277.664 364.142 277.012L443.391 305.656ZM14.7647 308.758C14.3705 307.729 13.9898 306.694 13.6091 305.657L92.8711 277.012C93.1022 277.664 93.3468 278.314 93.5915 278.962L14.7647 308.758ZM439.163 316.428C438.741 317.444 438.306 318.458 437.857 319.467L360.662 285.699C360.934 285.064 361.22 284.427 361.478 283.786L439.163 316.428ZM19.1424 319.467C18.7074 318.458 18.2588 317.444 17.8373 316.428L95.5222 283.786C95.7941 284.427 96.066 285.064 96.3515 285.699L19.1424 319.467ZM434.404 326.968C433.915 327.962 433.439 328.951 432.936 329.936L357.562 292.291C357.875 291.671 358.174 291.047 358.487 290.421L434.404 326.968ZM24.064 329.936C23.5746 328.951 23.0852 327.962 22.6094 326.968L98.5267 290.421C98.8258 291.048 99.1386 291.671 99.4377 292.292L24.064 329.936ZM429.102 337.249C428.572 338.216 428.042 339.18 427.498 340.137L354.123 298.721C354.476 298.117 354.802 297.51 355.142 296.9L429.102 337.249ZM29.5158 340.137C28.972 339.18 28.4283 338.216 27.898 337.249L101.858 296.9C102.198 297.51 102.538 298.117 102.877 298.721L29.5158 340.137ZM423.297 347.244C422.712 348.183 422.127 349.117 421.543 350.046L350.37 304.973C350.737 304.387 351.118 303.797 351.472 303.206L423.297 347.244ZM35.4707 350.046C34.8725 349.117 34.288 348.183 33.717 347.244L105.528 303.206C105.896 303.797 106.263 304.387 106.63 304.973L35.4707 350.046ZM416.975 356.929C416.363 357.837 415.724 358.739 415.085 359.637L346.292 311.032C346.699 310.465 347.094 309.894 347.488 309.321L416.975 356.929ZM41.9149 359.637C41.276 358.739 40.6507 357.837 40.0253 356.929L109.512 309.321C109.906 309.894 110.301 310.465 110.708 311.032L41.9149 359.637ZM410.191 366.28C409.525 367.154 408.845 368.023 408.165 368.887L341.914 316.88C342.349 316.333 342.784 315.784 343.206 315.231L410.191 366.28ZM48.8352 368.887C48.1554 368.023 47.4756 367.154 46.8095 366.28L113.808 315.231C114.23 315.784 114.651 316.333 115.086 316.88L48.8352 368.887ZM402.944 375.274C402.224 376.112 401.517 376.947 400.782 377.776L337.251 322.503C337.713 321.978 338.162 321.45 338.61 320.92L402.944 375.274ZM56.2175 377.776C55.4969 376.947 54.7764 376.112 54.0694 375.274L118.39 320.92C118.838 321.45 119.301 321.978 119.749 322.503L56.2175 377.776ZM395.249 383.89C394.488 384.691 393.74 385.489 392.965 386.28L332.302 327.886C332.791 327.384 333.267 326.881 333.743 326.373L395.249 383.89ZM64.0349 386.28C63.2735 385.489 62.5123 384.691 61.7509 383.89L123.257 326.373C123.733 326.881 124.222 327.384 124.698 327.886L64.0349 386.28ZM387.133 392.108C386.331 392.872 385.542 393.629 384.74 394.38L327.095 333.013C327.598 332.538 328.101 332.058 328.604 331.575L387.133 392.108ZM72.2739 394.38C71.4717 393.629 70.6696 392.872 69.881 392.108L128.396 331.575C128.899 332.058 129.402 332.538 129.919 333.013L72.2739 394.38ZM378.608 399.908C377.779 400.631 376.936 401.348 376.093 402.057L321.629 337.872C322.159 337.421 322.69 336.968 323.206 336.511L378.608 399.908ZM80.907 402.058C80.0641 401.348 79.2348 400.631 78.4055 399.908L133.794 336.511C134.324 336.968 134.84 337.423 135.384 337.872L80.907 402.058ZM369.703 407.272C368.833 407.951 367.963 408.626 367.079 409.293L315.919 342.448C316.477 342.026 317.034 341.6 317.578 341.17L369.703 407.272ZM89.9208 409.293C89.0371 408.626 88.1669 407.951 87.3104 407.272L139.422 341.17C139.98 341.6 140.523 342.026 141.081 342.448L89.9208 409.293ZM360.431 414.178C359.534 414.814 358.623 415.444 357.712 416.066L310.005 346.73C310.576 346.336 311.147 345.938 311.718 345.536L360.431 414.178ZM99.2882 416.066C98.3773 415.444 97.48 414.814 96.5827 414.179L145.282 345.536C145.853 345.938 146.424 346.337 147.008 346.73L99.2882 416.066ZM350.819 420.612C349.881 421.202 348.943 421.786 348.005 422.362L303.874 350.705C304.472 350.341 305.056 349.973 305.641 349.601L350.819 420.612ZM108.995 422.362C108.057 421.786 107.119 421.202 106.195 420.612L151.359 349.601C151.944 349.973 152.542 350.341 153.126 350.705L108.995 422.362ZM340.881 426.554C339.929 427.097 338.964 427.633 337.985 428.16L297.552 354.364C298.163 354.03 298.775 353.692 299.373 353.35L340.881 426.554ZM119.015 428.16C118.05 427.633 117.085 427.097 116.119 426.554L157.627 353.35C158.225 353.692 158.837 354.03 159.448 354.364L119.015 428.16ZM330.657 431.989C329.678 432.482 328.685 432.968 327.693 433.447L291.067 357.694C291.692 357.393 292.317 357.086 292.929 356.776L330.657 431.989ZM129.321 433.447C128.328 432.968 127.336 432.482 126.343 431.989L164.071 356.776C164.696 357.086 165.322 357.393 165.947 357.694L129.321 433.447ZM320.175 436.899C319.155 437.342 318.149 437.777 317.129 438.206L284.418 360.689C285.057 360.42 285.696 360.145 286.335 359.867L320.175 436.899ZM139.884 438.206C138.865 437.777 137.845 437.342 136.839 436.899L170.678 359.867C171.317 360.145 171.956 360.42 172.595 360.689L139.884 438.206ZM309.434 441.272C308.401 441.662 307.368 442.045 306.334 442.421L277.621 363.342C278.273 363.106 278.926 362.864 279.578 362.619L309.434 441.272ZM150.679 442.421C149.632 442.045 148.599 441.662 147.566 441.272L177.422 362.619C178.074 362.864 178.727 363.106 179.379 363.342L150.679 442.421ZM298.49 445.093C297.443 445.43 296.382 445.759 295.336 446.082L270.7 365.644C271.367 365.44 272.033 365.233 272.699 365.021L298.49 445.093ZM161.678 446.082C160.618 445.759 159.557 445.43 158.51 445.093L184.314 365.021C184.967 365.233 185.633 365.44 186.3 365.644L161.678 446.082ZM287.369 448.352C286.308 448.635 285.234 448.911 284.16 449.178L263.685 367.59C264.351 367.421 265.031 367.249 265.697 367.069L287.369 448.352ZM172.84 449.178C171.766 448.911 170.705 448.635 169.631 448.352L191.303 367.069C191.969 367.249 192.649 367.421 193.328 367.59L172.84 449.178ZM276.098 451.039C275.01 451.267 273.936 451.488 272.849 451.701L256.561 369.178C257.241 369.043 257.934 368.904 258.6 368.761L276.098 451.039ZM184.151 451.701C183.077 451.488 181.99 451.267 180.916 451.039L198.4 368.761C199.079 368.904 199.759 369.043 200.439 369.178L184.151 451.701ZM264.705 453.148C263.617 453.322 262.516 453.486 261.428 453.645L249.369 370.401C250.063 370.302 250.742 370.198 251.436 370.089L264.705 453.148ZM195.572 453.645C194.484 453.488 193.396 453.322 192.309 453.148L205.578 370.089C206.258 370.198 206.951 370.302 207.631 370.403L195.572 453.645ZM207.074 455.007C205.972 454.905 204.871 454.795 203.783 454.677L212.811 371.054C213.504 371.128 214.198 371.198 214.891 371.263L207.074 455.007ZM253.217 454.677C252.129 454.795 251.028 454.905 249.94 455.007L242.109 371.263C242.802 371.198 243.496 371.128 244.189 371.054L253.217 454.677ZM241.701 455.624C240.6 455.687 239.499 455.742 238.397 455.788L234.795 371.758C235.502 371.728 236.195 371.693 236.888 371.653L241.701 455.624ZM218.603 455.788C217.501 455.742 216.4 455.687 215.312 455.624L220.112 371.653C220.805 371.693 221.512 371.728 222.205 371.758L218.603 455.788ZM228.5 456C227.956 456 227.399 455.997 226.841 455.993L227.453 371.888C227.793 371.891 228.146 371.892 228.5 371.892C228.69 371.892 228.867 371.891 229.044 371.891C229.221 371.891 229.384 371.889 229.56 371.888L230.159 455.993C229.601 455.997 229.057 456 228.5 456Z" fill="#182F35"/>
</svg>
