<svg width="151" height="151" viewBox="0 0 151 151" fill="none" xmlns="http://www.w3.org/2000/svg">
<path fill-rule="evenodd" clip-rule="evenodd" d="M74.3851 0.00704383C74.7305 0.00235262 75.0841 0 75.4295 0C75.7748 0 76.1202 0.00235262 76.4656 0.00704383L76.0215 32.896C75.8242 32.8933 75.6268 32.892 75.4295 32.892C75.2321 32.892 75.0348 32.8933 74.8375 32.896L74.3851 0.00704383ZM68.1768 0.344853C68.8676 0.279224 69.5583 0.222836 70.2491 0.175799L72.4775 32.9919C72.091 33.0185 71.6962 33.0504 71.3098 33.0875L68.1768 0.344853ZM80.61 0.175799C81.3007 0.222836 81.9915 0.279226 82.674 0.344853L79.541 33.0875C79.1545 33.0504 78.7681 33.0185 78.3734 32.9919L80.61 0.175799ZM86.8019 0.853765C87.4845 0.957998 88.167 1.07155 88.8495 1.19429L83.0275 33.5664C82.641 33.4973 82.2629 33.4334 81.8681 33.3747L86.8019 0.853765ZM62.0014 1.19429C62.6839 1.07155 63.3664 0.957998 64.0571 0.853766L68.9827 33.3747C68.5962 33.4334 68.2097 33.4973 67.8232 33.5664L62.0014 1.19429ZM55.9081 2.55382C56.5824 2.37501 57.2484 2.20516 57.9309 2.04442L65.5372 34.0442C65.1589 34.1344 64.7807 34.2298 64.4024 34.3302L55.9081 2.55382ZM92.928 2.04442C93.6023 2.20516 94.2766 2.37501 94.9426 2.55382L86.4483 34.3302C86.0783 34.2298 85.7 34.1344 85.3218 34.0442L92.928 2.04442ZM49.9464 4.41634C50.6043 4.18235 51.2539 3.95707 51.92 3.74063L62.1658 34.9961C61.7958 35.1177 61.4257 35.2441 61.0557 35.3754L49.9464 4.41634ZM98.939 3.74063C99.5968 3.95707 100.255 4.18235 100.904 4.41634L89.795 35.3754C89.4332 35.2441 89.0632 35.1177 88.6932 34.9961L98.939 3.74063ZM44.1657 6.76811C44.7988 6.48042 45.4321 6.20111 46.0734 5.93036L58.8848 36.2256C58.523 36.3777 58.1613 36.5347 57.8077 36.6964L44.1657 6.76811ZM104.786 5.93036C105.419 6.20111 106.06 6.48042 106.693 6.76812L93.0432 36.6964C92.6896 36.5347 92.3359 36.3777 91.9741 36.2256L104.786 5.93036ZM110.427 8.59808C111.043 8.92041 111.652 9.25095 112.252 9.58941L96.1761 38.284C95.8389 38.0933 95.4936 37.9073 95.1482 37.7258L110.427 8.59808ZM38.5988 9.58941C39.2073 9.25095 39.8158 8.92041 40.4325 8.59808L55.7108 37.7258C55.3654 37.9073 55.02 38.0933 54.6747 38.284L38.5988 9.58941ZM115.821 11.7209C116.405 12.0924 116.988 12.4717 117.564 12.8587L99.1693 40.1278C98.8486 39.9094 98.5197 39.6953 98.1908 39.4857L115.821 11.7209ZM33.2949 12.8587C33.8705 12.4717 34.4461 12.0924 35.0299 11.7209L52.6683 39.4857C52.3394 39.6953 52.0104 39.9094 51.6815 40.1278L33.2949 12.8587ZM120.944 15.2756C121.495 15.6938 122.037 16.1194 122.58 16.5524L102.006 42.2151C101.702 41.9703 101.39 41.7296 101.077 41.4932L120.944 15.2756ZM28.2789 16.5524C28.8134 16.1194 29.3643 15.6938 29.9152 15.2756L49.7738 41.4932C49.4613 41.7296 49.1571 41.9703 48.8528 42.2151L28.2789 16.5524ZM23.5836 20.6437C24.0852 20.168 24.595 19.6992 25.1048 19.2374L47.0602 43.7341C46.7641 43.9955 46.4764 44.2608 46.1968 44.5301L23.5836 20.6437ZM125.746 19.2374C126.264 19.6992 126.774 20.168 127.275 20.6437L104.662 44.53C104.374 44.2608 104.087 43.9955 103.799 43.7341L125.746 19.2374ZM130.211 23.5792C130.68 24.0816 131.149 24.5907 131.617 25.1061L107.121 47.0558C106.858 46.7642 106.595 46.476 106.323 46.1916L130.211 23.5792ZM19.2418 25.1061C19.7023 24.5907 20.171 24.0816 20.6479 23.5792L44.5357 46.1916C44.2644 46.476 44.0013 46.7642 43.7381 47.0558L19.2418 25.1061ZM15.2783 29.9113C15.6977 29.3592 16.1253 28.8131 16.5529 28.2732L42.2168 48.8475C41.9701 49.1529 41.7316 49.4617 41.4932 49.7738L15.2783 29.9113ZM134.298 28.2732C134.734 28.8131 135.161 29.3592 135.572 29.9113L109.358 49.7738C109.119 49.4617 108.881 49.1529 108.634 48.8475L134.298 28.2732ZM11.726 35.0285C12.096 34.4436 12.4743 33.8642 12.8608 33.2905L40.1282 51.6827C39.9144 52.0066 39.7006 52.3337 39.4868 52.6637L11.726 35.0285ZM137.99 33.2905C138.377 33.8642 138.763 34.4436 139.133 35.0285L111.364 52.6637C111.158 52.3337 110.945 52.0066 110.723 51.6827L137.99 33.2905ZM8.60122 40.426C8.92191 39.8116 9.25089 39.2022 9.58804 38.598L38.2863 54.676C38.0972 55.0163 37.908 55.3595 37.7271 55.7054L8.60122 40.426ZM141.263 38.598C141.6 39.2022 141.929 39.8116 142.25 40.426L113.124 55.7054C112.943 55.3595 112.762 55.0163 112.565 54.676L141.263 38.598ZM5.92874 46.0695C6.2001 45.4291 6.4797 44.7933 6.76751 44.1623L36.6992 57.8071C36.5348 58.1618 36.3786 58.5191 36.2305 58.8788L5.92874 46.0695ZM144.083 44.1623C144.371 44.7933 144.651 45.4291 144.922 46.0695L114.629 58.8788C114.472 58.5191 114.316 58.1618 114.152 57.8071L144.083 44.1623ZM3.7415 51.9153C3.96352 51.2551 4.1855 50.5988 4.41574 49.9467L35.3753 61.056C35.2438 61.422 35.1204 61.7904 34.9971 62.1609L3.7415 51.9153ZM146.435 49.9467C146.665 50.5988 146.896 51.2551 147.109 51.9153L115.854 62.1609C115.73 61.7904 115.607 61.422 115.476 61.056L146.435 49.9467ZM148.302 55.9072C148.474 56.5762 148.647 57.2487 148.803 57.9247L116.808 65.5339C116.717 65.1543 116.618 64.7767 116.52 64.4012L148.302 55.9072ZM2.04752 57.9247C2.20375 57.2487 2.37643 56.5762 2.55734 55.9072L34.331 64.4012C34.2323 64.7767 34.1337 65.1543 34.0432 65.5339L2.04752 57.9247ZM149.658 61.9985C149.782 62.6806 149.897 63.3658 149.996 64.0538L117.474 68.9804C117.416 68.5928 117.35 68.2071 117.285 67.8234L149.658 61.9985ZM0.855223 64.0538C0.962122 63.3658 1.07718 62.6807 1.20052 61.9985L33.5662 67.8234C33.5004 68.2071 33.4347 68.5928 33.3771 68.9804L0.855223 64.0538ZM0.180882 70.2437C0.221997 69.5525 0.279618 68.8636 0.345402 68.1771L33.0893 71.3072C33.0564 71.6954 33.0235 72.0853 32.9906 72.477L0.180882 70.2437ZM150.505 68.1771C150.571 68.8636 150.629 69.5525 150.678 70.2437L117.86 72.477C117.835 72.0854 117.803 71.6954 117.761 71.3072L150.505 68.1771ZM0 75.4246C0 75.0777 0.00823102 74.7314 0.00823102 74.3854L32.9002 74.8314C32.892 75.0287 32.892 75.2265 32.892 75.4246C32.892 75.6227 32.892 75.8204 32.9002 76.0177L0.00823102 76.4637C0.00823102 76.1178 0 75.7714 0 75.4246ZM150.843 74.3854C150.851 74.7314 150.851 75.0777 150.851 75.4246C150.851 75.7714 150.851 76.1178 150.843 76.4637L117.959 76.0177C117.959 75.8204 117.959 75.6227 117.959 75.4246C117.959 75.2265 117.959 75.0287 117.959 74.8314L150.843 74.3854ZM0.345402 82.6721C0.279618 81.9855 0.221997 81.2966 0.180882 80.6055L32.9906 78.372C33.0235 78.7638 33.0564 79.1538 33.0893 79.5419L0.345402 82.6721ZM150.678 80.6055C150.629 81.2966 150.571 81.9855 150.505 82.6721L117.761 79.5419C117.803 79.1538 117.835 78.7638 117.86 78.3721L150.678 80.6055ZM1.20052 88.8511C1.07718 88.1686 0.962122 87.4836 0.855223 86.7953L33.3771 81.8688C33.4347 82.2563 33.5004 82.6421 33.5662 83.0257L1.20052 88.8511ZM149.996 86.7953C149.897 87.4836 149.782 88.1686 149.658 88.8511L117.285 83.0257C117.35 82.6421 117.416 82.2563 117.474 81.8688L149.996 86.7953ZM2.55734 94.9418C2.37643 94.2733 2.20375 93.6007 2.04752 92.9247L34.0432 85.3152C34.1337 85.6951 34.2323 86.0725 34.331 86.4483L2.55734 94.9418ZM148.803 92.9247C148.647 93.6007 148.474 94.2733 148.302 94.9418L116.52 86.4483C116.618 86.0725 116.717 85.6951 116.808 85.3152L148.803 92.9247ZM4.41574 100.903C4.1855 100.251 3.96352 99.5944 3.7415 98.9341L34.9971 88.6883C35.1204 89.0591 35.2438 89.4275 35.3753 89.7934L4.41574 100.903ZM147.109 98.9341C146.896 99.5944 146.665 100.251 146.435 100.903L115.476 89.7934C115.607 89.4275 115.73 89.0591 115.854 88.6883L147.109 98.9341ZM6.76751 106.687C6.4797 106.056 6.2001 105.42 5.92874 104.78L36.2305 91.9701C36.3786 92.3302 36.5348 92.6871 36.6992 93.0423L6.76751 106.687ZM144.922 104.78C144.651 105.42 144.371 106.056 144.083 106.687L114.152 93.0423C114.316 92.6871 114.472 92.3302 114.629 91.9701L144.922 104.78ZM142.25 110.423C141.929 111.038 141.6 111.647 141.263 112.251L112.565 96.1728C112.762 95.8324 112.943 95.4895 113.124 95.1441L142.25 110.423ZM9.58804 112.251C9.25089 111.647 8.92191 111.038 8.60122 110.423L37.7271 95.1441C37.908 95.4895 38.0972 95.8324 38.2863 96.1728L9.58804 112.251ZM12.8608 117.558C12.4743 116.985 12.096 116.405 11.726 115.821L39.4868 98.1858C39.7006 98.5156 39.9144 98.8428 40.1282 99.166L12.8608 117.558ZM139.133 115.821C138.763 116.405 138.377 116.985 137.99 117.558L110.723 99.166C110.945 98.8428 111.158 98.5156 111.364 98.1858L139.133 115.821ZM16.5529 122.576C16.1253 122.036 15.6977 121.49 15.2783 120.938L41.4932 101.075C41.7316 101.388 41.9701 101.696 42.2168 102.001L16.5529 122.576ZM135.572 120.938C135.161 121.49 134.734 122.036 134.298 122.576L108.634 102.001C108.881 101.696 109.119 101.388 109.358 101.075L135.572 120.938ZM20.6479 127.27C20.171 126.767 19.7023 126.258 19.2418 125.743L43.7381 103.793C44.0013 104.085 44.2644 104.373 44.5357 104.657L20.6479 127.27ZM131.617 125.743C131.149 126.258 130.68 126.767 130.211 127.27L106.323 104.657C106.595 104.373 106.858 104.085 107.121 103.793L131.617 125.743ZM25.1048 131.611C24.595 131.15 24.0852 130.681 23.5836 130.205L46.1968 106.319C46.4764 106.588 46.7641 106.854 47.0602 107.115L25.1048 131.611ZM127.275 130.205C126.774 130.681 126.264 131.15 125.746 131.611L103.799 107.115C104.087 106.854 104.374 106.588 104.662 106.319L127.275 130.205ZM29.9152 135.573C29.3643 135.156 28.8134 134.73 28.2789 134.297L48.8528 108.634C49.1571 108.879 49.4613 109.119 49.7738 109.356L29.9152 135.573ZM122.58 134.297C122.037 134.73 121.495 135.156 120.944 135.573L101.077 109.356C101.39 109.119 101.702 108.879 102.006 108.634L122.58 134.297ZM35.0299 139.128C34.4461 138.756 33.8705 138.377 33.2949 137.991L51.6815 110.721C52.0104 110.94 52.3394 111.153 52.6683 111.363L35.0299 139.128ZM117.564 137.991C116.988 138.377 116.405 138.756 115.821 139.128L98.1908 111.363C98.5197 111.153 98.8486 110.94 99.1693 110.721L117.564 137.991ZM40.4325 142.251C39.8158 141.929 39.2073 141.598 38.5988 141.259L54.6747 112.565C55.02 112.756 55.3654 112.942 55.7108 113.124L40.4325 142.251ZM112.252 141.259C111.652 141.598 111.043 141.929 110.427 142.251L95.1482 113.124C95.4936 112.942 95.8389 112.756 96.1761 112.565L112.252 141.259ZM46.0734 144.919C45.4321 144.648 44.7988 144.369 44.1657 144.081L57.8077 114.152C58.1613 114.314 58.523 114.471 58.8848 114.624L46.0734 144.919ZM106.693 144.081C106.06 144.369 105.419 144.648 104.786 144.919L91.9741 114.624C92.3359 114.471 92.6896 114.314 93.0432 114.152L106.693 144.081ZM51.92 147.109C51.2539 146.892 50.6043 146.667 49.9464 146.433L61.0557 115.474C61.4257 115.605 61.7958 115.731 62.1658 115.853L51.92 147.109ZM100.904 146.433C100.255 146.667 99.5968 146.892 98.939 147.109L88.6932 115.853C89.0632 115.731 89.4332 115.605 89.795 115.474L100.904 146.433ZM57.9309 148.805C57.2484 148.644 56.5824 148.474 55.9081 148.295L64.4024 116.519C64.7807 116.619 65.1589 116.715 65.5372 116.805L57.9309 148.805ZM94.9426 148.295C94.2766 148.474 93.6023 148.644 92.928 148.805L85.3218 116.805C85.7 116.715 86.0783 116.619 86.4483 116.519L94.9426 148.295ZM64.0571 149.996C63.3664 149.891 62.6839 149.778 62.0014 149.655L67.8232 117.283C68.2097 117.352 68.5962 117.416 68.9827 117.474L64.0571 149.996ZM88.8495 149.655C88.1752 149.778 87.4845 149.891 86.8019 149.996L81.8681 117.474C82.2629 117.416 82.641 117.352 83.0275 117.283L88.8495 149.655ZM70.2491 150.673C69.5583 150.626 68.8676 150.57 68.1768 150.505L71.3098 117.761C71.6962 117.798 72.091 117.831 72.4775 117.858L70.2491 150.673ZM82.674 150.505C81.9915 150.57 81.3007 150.626 80.61 150.673L78.3734 117.858C78.7681 117.831 79.1545 117.798 79.541 117.761L82.674 150.505ZM75.4295 150.849C75.0841 150.849 74.7305 150.847 74.3851 150.842L74.8375 117.953C75.0348 117.956 75.2321 117.957 75.4295 117.957C75.6268 117.957 75.8242 117.956 76.0215 117.953L76.4656 150.842C76.1202 150.847 75.7748 150.849 75.4295 150.849Z" fill="url(#paint0_linear_47_201)"/>
<defs>
<linearGradient id="paint0_linear_47_201" x1="75.4295" y1="16.446" x2="23.822" y2="111.972" gradientUnits="userSpaceOnUse">
<stop stop-color="#265E6D"/>
<stop offset="1" stop-color="#7AE7C7"/>
</linearGradient>
</defs>
</svg>
