<svg width="156" height="35" viewBox="0 0 156 35" fill="none" xmlns="http://www.w3.org/2000/svg">
<path d="M47.8762 31.0225C45.1497 31.0225 42.9786 30.2776 41.363 28.7877C39.7725 27.2978 38.9773 25.2144 38.9773 22.5377V20.0377H43.9758V22.5377C43.9758 23.7245 44.304 24.6589 44.9604 25.3407C45.6168 25.9973 46.5382 26.3255 47.7247 26.3255C48.8355 26.3255 49.6938 25.9973 50.2997 25.3407C50.9309 24.6841 51.2464 23.7498 51.2464 22.5377V8.52251H46.7023V3.97705H59.2744V8.52251H56.245V22.5377C56.245 25.2902 55.5002 27.3988 54.0108 28.8634C52.5213 30.3028 50.4764 31.0225 47.8762 31.0225Z" fill="white"/>
<path d="M63.3774 30.4922V3.97705H80.4178V8.52251H68.3759V14.8483H79.3575V19.3937H68.3759V25.9467H80.645V30.4922H63.3774Z" fill="white"/>
<path d="M84.3451 30.4922V3.97705H93.8499L99.1135 27.0831H99.7951V3.97705H104.718V30.4922H95.2131L89.9495 7.38614H89.2679V30.4922H84.3451Z" fill="white"/>
<path d="M109.714 30.4922V3.97705H119.218L124.482 27.0831H125.164V3.97705H130.086V30.4922H120.582L115.318 7.38614H114.636V30.4922H109.714Z" fill="white"/>
<path d="M133.264 30.4922L140.232 3.97705H148.941L155.909 30.4922H150.759L149.32 24.6589H139.853L138.414 30.4922H133.264ZM141.027 20.0377H148.146L144.927 7.12099H144.246L141.027 20.0377Z" fill="white"/>
<rect width="35" height="35" rx="3" fill="#0788FF"/>
<path d="M18.9419 31.0225C21.6684 31.0225 23.8395 30.2776 25.4552 28.7877C27.0456 27.2978 27.8408 25.2144 27.8408 22.5377V20.0377H22.8423V22.5377C22.8423 23.7245 22.5141 24.6589 21.8577 25.3407C21.2014 25.9973 20.2799 26.3255 19.0934 26.3255C17.9826 26.3255 17.1243 25.9973 16.5184 25.3407C15.8873 24.6841 15.5717 23.7498 15.5717 22.5377V8.52251L21.7067 18.8634L16.934 3.97705H7.54375V8.52251H10.5732V22.5377C10.5732 25.2902 11.3179 27.3988 12.8074 28.8634C14.2968 30.3028 16.3417 31.0225 18.9419 31.0225Z" fill="white"/>
</svg>
